<svg id="ulmunic" data-name="ulmunic" xmlns="http://www.w3.org/2000/svg" viewBox="0 0 193.7 173.7" ><defs>
<style>
.cls-1 {
	fill:none;
	stroke:gray;
	stroke-linecap:round;
	stroke-linejoin:round;
stroke-width:1px;
}
.cls-2 {
	fill:#7fe1ff;
	stroke: #fff;
	stroke-width: 0.75px;
}
.city {
	fill:gray;
}
.raion {
	fill:#c0de79;
	stroke: #fff;
	stroke-width: 0.2px;
}
.city, .raion {
	cursor:pointer;
}
.raion:hover, .city:hover {
	fill:#FF6600;
}
.raion:active, .city:active {
	fill:#ff0000;
}
.neighbour {
	font-size:6px;
	font-family:'Arial';
	font-weight: bold;
	fill:#999999;
}
.neighbour.small {
	font-size:5px;
}
.title {
	font-size:8px;
	font-family:'Arial';
	font-weight: bold;
	fill:#727272;
}
.tooltip {
	font-size:10px;
	font-family:'Arial';
	font-weight: bold;
	fill:#666666;
	text-transform: uppercase;
}
.tooltip_bg {
  fill: white;
  stroke: #333;
  stroke-width: 0.5;
  opacity: 0.7;
}

</style>
<script xlink:href="svg.min.js" xlink:type="simple" xlink:show="other" type="text/ecmascript" xmlns:xlink="http://www.w3.org/1999/xlink"></script>
<script xlink:href="rmap.js" xlink:actuate="onLoad" xlink:type="simple" xlink:show="other" type="text/ecmascript" xmlns:xlink="http://www.w3.org/1999/xlink"/>
</defs>
<title>rmap</title>
<path id="border" class="cls-1" d="M73.16,11.37c0-1.18-.37-4.77-0.24-6.21A5.74,5.74,0,0,1,75,1.7c0.63-.4,1.57.18,2.85,0.52a13.54,13.54,0,0,0,3,.87C82.16,3.19,82,3,83.73,2.17a5.75,5.75,0,0,1,3.62-.86c1.5,0.25,1.16,1.55,3.1,2.14C91.66,3.81,92.72,1,93.22,0M197,35a4.49,4.49,0,0,1-.91,0,3.58,3.58,0,0,1-1.52-.86A26.43,26.43,0,0,1,193,31.67a3.11,3.11,0,0,0-.77-1,3.82,3.82,0,0,0-1.55-.75,24.26,24.26,0,0,0-3,.1M15.58,172.75a88.6,88.6,0,0,1,6.08-7.37,89.83,89.83,0,0,1,7.92-7.18,19.25,19.25,0,0,1,6.54-1.74c1.63-.12,2-1.73,2.42-2.31A2.54,2.54,0,0,1,41,153.5a2.48,2.48,0,0,1,2.11,1.6c0.43,0.86.48,1.73,0.93,2.75A5.86,5.86,0,0,0,46,160.52a6.39,6.39,0,0,0,3.46.88c0.92-.1,1.87-0.1,2.28-0.19m63.38-9.8a50.6,50.6,0,0,1,5.33,3.25c1.23,1.09,3,2.27,3.63,3a11.42,11.42,0,0,1,1.88,3.76A6.19,6.19,0,0,0,127.5,164a10.17,10.17,0,0,0,2.08,2.13c0.79,0.54,2,.79,2.79,1.33a7,7,0,0,1,1.82,2.33c0.38,0.76,1,1.89,1.88,2.12a5.67,5.67,0,0,0,3-.1c1-.31,1.58-1.24,2.38-1.65a19,19,0,0,1,5.79-.8,12.78,12.78,0,0,1,5.5,2.15c2,1.28,4.42.59,6,.35s4.13-1,5.58-.75a4.39,4.39,0,0,1,2.67,2.06M32.59,0V2.4a10.83,10.83,0,0,0,1,4.65,16.9,16.9,0,0,0,3.26,4" transform="translate(-3.55 0.25)"/><path id="river" class="cls-2" d="M163.7,61.1q1.05-.45,1.1-2.6-0.4-2.45,2.6-5.6,0.85-1,.2-1.25l-0.85-.3q0-.55-1.75.65-2.15,1.3-2.5.85h-2.15q-2.2,0-2.7,2.6,0.7,2.55-2.9,4a15.28,15.28,0,0,0-4.95,3.9,44.85,44.85,0,0,0-4.55,6q-1.25,1.55-2.55.65l-1.4-1.15-1.25-2.25a17.63,17.63,0,0,0-2.3-3.3q-1.5-2.1.2-5,0.85-3.65-1.85-1.85-2.35,1.25-2.85.4l-1.05-1.6a2.63,2.63,0,0,0-2.8-1,27.26,27.26,0,0,0-3.55-4.2l-1.95-1.8-2.1-7.7q-1.25-3-.4-4.25l3.8-1.4q4-3,6.3-3.3a4.71,4.71,0,0,1,4.25,1.8q1.4,2.25,1.8,1.3l0.35-1.3-0.1-3q-0.4.1,0.55-1.1a8.8,8.8,0,0,0,.45-4.9l-1-3.4a3.85,3.85,0,0,1,0-2.45q0.4-1.2,1.1-.85a25.22,25.22,0,0,0,3.6,2.8l1.95,1.15,1.65-.2q1.4-.25.55-1.1l-3.6-2.2q-2.25-1.3-2.5-2.55,3.6-2,3.15-4.75l-0.75-4.1a5.35,5.35,0,0,1,2.6,1.1l1.5,1.15,0.05-1.8q-0.4-1.85-4.75-2.4-2.3-3-2-3.7l-2.6-.2,0.15,2a6,6,0,0,1-1.55,3.8,4.35,4.35,0,0,0-1.6,3l0.4,4.8q0.05,3.3-1.75,3.5l-2.9-.25q-1.05-1.25-7.1.4-4,2.5-4.6,4.15T118.4,24q0.5,0.85-.75,3.4-0.5,21.8,1.25,22.15l0.3,2.5a6.2,6.2,0,0,0,2.4,1q1.1,3.15,2,2.05t3.75,1.95a49.26,49.26,0,0,1,7,7.05l0.4,0.45h0.75v0.9q3.57,4.19,5.35,6.7,1.5,2.45.5,3.25t-2.55-.25q-2.25-.45-1.7,1l0.85,1.6,0.25,4.5-0.45,2.5a34.28,34.28,0,0,0-.45,5.25q0.55,5.05,1.1,4.45l1.45,1.8a16.58,16.58,0,0,0,2.85,2.7q3.7,2.15-.3,2.9-2.2.3-1.6,1l0.85,0.85q-0.05-.25,3.3,2.6,2.05,0.65,2.2-.3,3.95-.35,3.3,1.7l-1,2.35-0.8.95q-1.05.95-6.2,1.65l-6.35-.2-3.6-1.95q-2.4-.95-2.2.2l0.4,1.4a38,38,0,0,0,3.95,2.6,5.24,5.24,0,0,0,3.4.75l1.45-.4,7.15-1.3a16.66,16.66,0,0,0,4.35-.95,4.56,4.56,0,0,0,3.3-3.6q0.2-3.65,1.75-4.5a3.45,3.45,0,0,1,1.8-.75l6.3-1a47.18,47.18,0,0,1,12.75-.1l8.25,1.05q0.25-.2,2.55,1t3.1,6.15q0.05,5-3.15,6.65t-3.75,1.45l-9.95.85a17.94,17.94,0,0,0-9.15,2.4q-2.05,1-3.1.55l-1-.65-4-3.35a10.23,10.23,0,0,0-4.85-2.1l-4.55-.4q-3.4-.15-3.65,2.25t-2.5,1.4q-1.3-1.8-2.95.75A43.6,43.6,0,0,1,125.6,124a23.89,23.89,0,0,0-2.65,1.55q-2.85,2-3.35,4.05-0.7,2.9-.25,3.9l1.85,6.9q-0.1,2.1-2.7,6.75l-4,7.4a16.5,16.5,0,0,1-2.3,3.35,29.23,29.23,0,0,0-2.45,2.75,38,38,0,0,0-3.25,5.1,11.74,11.74,0,0,0-.85,4.65l0.1,2.6,1.4-.3a22.75,22.75,0,0,1,1.5-2.85,6.61,6.61,0,0,1,2.7-2.65l3.6-1.55,3.75-4.4q0.37-.31.65-0.6,2.45-2.27,1.3-3.2t-4.35.35q-2.7-.25-0.5-2.6l3.85-4.35a40.39,40.39,0,0,0,3.3-4.35,13.07,13.07,0,0,0,.7-1.15,18.83,18.83,0,0,0,1.2-4.2,4.71,4.71,0,0,0-.3-3.1,5.06,5.06,0,0,1-.7-2.5l-0.1-2.25a4.53,4.53,0,0,1,0-2.6q0.4-2,4.75-4.2a62.73,62.73,0,0,1,17.4-5.3q4.35-.45,5.65,1.2a9.62,9.62,0,0,1,1.5,2.35q0.4,1.45,3,1.5,3.35,0.3,3.65,1,0.25,0.9,4.25,4.75,1.75,1.25,1.7.25l-0.2-1.25L162,126.25a2,2,0,0,0,2.3-.2l1.05-1,0.75,1.4q0.8,1.2,3.45.65,2.45-.8,1.9-1.7l-0.85-1-2.15-.25a3.73,3.73,0,0,1,1.7-1.5l1.2-.45h13.2q8.65-.7,8.85-9.9a11.77,11.77,0,0,0-3-7.5,11.27,11.27,0,0,0-5.65-3.75l-35.4-1.5a7.32,7.32,0,0,1-4.05-.8q-2-1-.8-5.65a29,29,0,0,0,1.3-7.55l-0.1-6.95q0.25-3.85,1.95-3.55a3.92,3.92,0,0,1,2,.65l6.6,7.8q2.45,2.25,2.85.85a2.83,2.83,0,0,0-.45-2.5l-3.7-3.2a14.16,14.16,0,0,1-3.45-3.8q-1.8-6.45.05-8.6a13.74,13.74,0,0,1,3.25-2.9q1.65-2.45,2.95.2,0.85,1.35,1.85.8Z" transform="translate(-3.55 0.25)"/><path id="ulcity" class="city" d="M124.6,37.55q0.1,2.3-2.9,3a8.83,8.83,0,0,1-1-1.85,4.14,4.14,0,0,1,0-1.35,1.68,1.68,0,0,1,1.45-1.55,6.07,6.07,0,0,0,2.2-.75Zm-7.35,1.3,0-3.15-2-.2q-1.85,0-3.65,2.8l-3.1,3.7q-0.65.2,0.5,3.25l1.8,2.6,0.9,0.35a1.79,1.79,0,0,0,1.8-.85q2.5-2.1,4.1-1.8l-0.2-2.6Z" transform="translate(-3.55 0.25)"/><path id="surskoe" class="raion"   d="M62.95,14l-4.6.5-6.15.7-1.3.15-1.35.15L49,15.7l-0.8.45a2.72,2.72,0,0,1-3-.6L42,13.35l-4.4-2.55Q36.7,10.2,33.9,13a9.69,9.69,0,0,0-1.15,4.9,14.8,14.8,0,0,0,.4,3.4,21.37,21.37,0,0,0,1.7,4.3l1.35,2.5q0.5,0.05,1.15,1.7v0.3a2.93,2.93,0,0,1-.7,1.8,2.55,2.55,0,0,0-.6,1.5v0.3a3.8,3.8,0,0,0,2.1,2.2L38.6,36.1a3.33,3.33,0,0,1,1.6,1.7,3.41,3.41,0,0,1,2.05-.65,1.18,1.18,0,0,1,1,.55l0.5,0.5a1.28,1.28,0,0,0,1.05-.4l2.95-.25a1.36,1.36,0,0,1,1,.45,1.31,1.31,0,0,0,.9.45,1.19,1.19,0,0,0,1-.45l0-.25-0.2-.55v0l-0.1-.05a3.59,3.59,0,0,1-1.65-1.5L48.5,35l0.2-.5a3,3,0,0,1,2.45-.7,1.07,1.07,0,0,0,1.35-.4,1.36,1.36,0,0,1,1.35-.75,1,1,0,0,1,.95.65,2.43,2.43,0,0,0,1.5.45h0l0-.05q1-1,2.85.3l0.65,0.5a1.41,1.41,0,0,0,.9-0.4L61,34a1.46,1.46,0,0,1,1.85.15l0.45,0.4,0.1,0.2,0.6-.8A1.86,1.86,0,0,1,66,33a1.76,1.76,0,0,1,1.35,1.6,0.6,0.6,0,0,0,.25.5A1.73,1.73,0,0,0,69,34.85l0.15,0.05,2.1-.25a1.55,1.55,0,0,0,1.2-2.15,4,4,0,0,1,.2-2.6L73,29.8l0.7-.1a1.81,1.81,0,0,0,.45-1.35q0.6-2.55,1.7-3.25l0-.05q-0.75-.25-1-1.9L74.4,19l-0.6-4.9-0.15-1.2V12.6A1.87,1.87,0,0,0,73.1,11q-0.7-.35-2.3.7-4.3,2.45-7.3,2.25Z" transform="translate(-3.55 0.25)"/><path id="cilna" class="raion"   d="M108,9.95l-0.8-.05-2.75.05-2.65-.05q-0.65-.2-2.35,1.6l-2,3.1-1.6,2.15v0l-0.05.05q-0.45.65-2.4,0.8A2.07,2.07,0,0,1,92.15,16a1.67,1.67,0,0,1,.7-1.65l0.35-.35q0.9-.85,0-2.3a2.23,2.23,0,0,0-1.8-.7A3.38,3.38,0,0,0,89,12.6l-2.6,5a39.62,39.62,0,0,1-2.9,5l-1.45,1,0.3,0.1a16.22,16.22,0,0,1,.4,3.8A6.68,6.68,0,0,1,81.55,32q-1.75,2-1.7,2.85l0.05,0.3q0.15,0.8,1.85,1.55,4.1,0.95,4.2,0L86,36.6h0.1q0.75-.3,2,1.25L88.9,38a6.84,6.84,0,0,0,4-1.7L93.7,35a0.67,0.67,0,0,0,0-1.1L93.3,33.1l-0.15-.85,0.35-1.1q1.45-1,1.9-.8l2.2-.05,0.35,0.05,1.55-.15,0-.3q0.55-1.65,3-1.75l0.15,0q0.25,0.2,1.7-1.05l1-1.1a2.62,2.62,0,0,1,2.35-1.35,2.4,2.4,0,0,0,2.1-.85l0.25-1-0.25-1.3-1.1-2.05a4.72,4.72,0,0,1-1.4-3l0.05-.55a4.16,4.16,0,0,1,2.5-2.5l0.15,0a20.7,20.7,0,0,0,2.4-2.1l0.25,0.25a2.5,2.5,0,0,0-1-1.95,1.94,1.94,0,0,0-1.85.35H109.7Z" transform="translate(-3.55 0.25)"/><path id="stmaina" class="raion"   d="M164.7,14.1a50.19,50.19,0,0,0-4.8-5.4l-5.45-5.4q-1.5-1.7-4.65-.85l-1.55.2a2.24,2.24,0,0,0-1.95,1.1l-0.15.7A4.34,4.34,0,0,0,147,6.6V6.65L147.1,7.1l0.15,0.85a4.47,4.47,0,0,1-.7,2,13.17,13.17,0,0,1-4.3,4.6,3,3,0,0,0-1.75,1.25l-0.05.25,0.2,0.65q0.65,1.2,3.95,2.55l0.6,0.25a2.61,2.61,0,0,1,1.65,1.45,1.49,1.49,0,0,1-1.55.85,5.57,5.57,0,0,1-3.95-2.05l-2.3-1.85a0.53,0.53,0,0,0-.65-0.15,3.16,3.16,0,0,0-.85,2.45l0.1,0.8,1.15,2.55,0.05,0.1,0.1,3.9-0.1.8a3,3,0,0,1,2.5,2.15l0.1,0.4,0.25-.2a3.56,3.56,0,0,0,.75-1.15,1,1,0,0,1,1-.7,2.1,2.1,0,0,1,1.6,1.7l0.2,1.55a2.12,2.12,0,0,0,1,2.15,3.56,3.56,0,0,0,2,.6l1,0.15,0.1,0.05,0-.1q0.55-.3,1.4-2.75a2.64,2.64,0,0,1,1.35-1.9l1.35,0.1,0.1,0.05a1.58,1.58,0,0,0,1.1.55,1.76,1.76,0,0,0,1-.95,1.91,1.91,0,0,1,1.5-1.1,4.17,4.17,0,0,1,2.85,1.2l0.4,0.3-0.25-1.05q-0.5-2,.1-2.35,2.05-3.15,3.05-2.75a1.65,1.65,0,0,0,1.55.45,3.79,3.79,0,0,0,.95-2.9l0.3-.15-0.35-.25A2.92,2.92,0,0,1,165.6,19,7.35,7.35,0,0,0,164.7,14.1Z" transform="translate(-3.55 0.25)"/><path id="ulraion" class="raion"   d="M120.85,19.3a3.31,3.31,0,0,0-.95-2.15l-1.45-1.35-2.15-2-1.25-.2-1.6-.15H113.3l-0.1-.15a1.64,1.64,0,0,1-.55-1.15l0-.5-2.4,2.1-0.2.1a3.55,3.55,0,0,0-2.2,2.1V16.4A4.41,4.41,0,0,0,109.05,19l1.15,2.2,0.3,1.5a2.11,2.11,0,0,1-.3,1.25,3,3,0,0,1-2.6,1.1,2,2,0,0,0-1.85,1.15l-1,1.2q-1.5,1.3-2,1.2h-0.15q-2.2.3-2.5,1.2a0.75,0.75,0,0,1-.2.7,2.45,2.45,0,0,1-1.95.3l-2.5,0a1.91,1.91,0,0,0-1.5.6,1.63,1.63,0,0,0-.1,1.4l0.35,0.6a1.24,1.24,0,0,1-.05,1.8l-0.7,1.15v0.1l0,0.05,1.2,0.2a1.31,1.31,0,0,1,1.1.45,2,2,0,0,1,.45,1.55v0.8l0,0.2a2.51,2.51,0,0,0,.7,2l0.05,0.1a1.45,1.45,0,0,1,.15.8L97,44.15l0,0.55a1.94,1.94,0,0,0,.8,1.1A1.49,1.49,0,0,1,98.05,47l0.3,1.1,0.05,0h0a1.42,1.42,0,0,1,1.45.4l0.15,0.55a2.59,2.59,0,0,1-.55,1.4,4.24,4.24,0,0,0-.85,2.35,1.8,1.8,0,0,0,.55,1.4,3.16,3.16,0,0,1,.9,2.1l0.2,0.75,0.1,0.1a7.82,7.82,0,0,0,2.75,1.7,1.7,1.7,0,0,0,1.2-1l0.35-.45a1.47,1.47,0,0,1,1.25-.7,1.73,1.73,0,0,1,1.25,1.2,15.82,15.82,0,0,0,3.6,3.9L111,62l0.1-.2,0.65-1.65a1.78,1.78,0,0,1,.8-1.5l1.55,0.15,1,0.8,1.05,0.6a2.3,2.3,0,0,0,1.15-1.25q1.2-2.15,2.05-2a1.61,1.61,0,0,1,1.05,1.2,1.07,1.07,0,0,0,.8.75,1.77,1.77,0,0,0,1.6-.6l0.7-1a4.66,4.66,0,0,1,2.25-1.9,2.44,2.44,0,0,0-2.25-.2l-0.9.1a1.23,1.23,0,0,1-.45-1l-0.15-.7q-0.4-1-2.15-.9h-0.35l-0.1-.1a1.8,1.8,0,0,1-.3-1.35V50.7L119,50.25l-1.2-4-0.2-.65q-1.55-.3-4.05,1.75-1,1.15-1.8.9l-1-.35-1.75-2.6q-1.15-3.1-.5-3.3l3.1-3.65q1.6-2.6,3.35-2.75l2.3,0.1-0.05-5.25V27.6l0.35-.65a1.4,1.4,0,0,0,.55-1.15l0-2.95q0-1.05,1.8-2.25a1.35,1.35,0,0,0,.85-1V19.3Z" transform="translate(-3.55 0.25)"/><path id="maina" class="raion"   d="M95.4,37.75a0.78,0.78,0,0,0-.7-0.3l-1.5-.3-0.1-.1-0.1.1a7.89,7.89,0,0,1-4.65,1.5,0.84,0.84,0,0,1-.7-0.55,1.53,1.53,0,0,0-1.35-.85H86.15q-0.65,1.1-4.6,0-2-.85-2.15-2l0-.4a5.79,5.79,0,0,1,1.85-3.2,6.53,6.53,0,0,0,1.1-4.15,17.81,17.81,0,0,0-.45-3.8,8.66,8.66,0,0,1-2.3.85l-0.4,0A3.44,3.44,0,0,0,77,25.3l-0.1.1H76.8L76,25.3l0.1,0.3q-0.9.5-1.5,2.85a2.39,2.39,0,0,1-.7,1.8,1.05,1.05,0,0,1-.85.2l-0.2,0-0.05.9,0.05,1.2L73,33.25a2,2,0,0,1-.4,1.3V34.7a1.66,1.66,0,0,0,.4,1.05l0.35,0.1L74.6,36l0.15,0.45a1.15,1.15,0,0,1-.15.6l-0.1.1,0.6,0.25h0.1l0.05,0.1L75.4,38V38.2a1.12,1.12,0,0,1-.85.65,1.53,1.53,0,0,0-1,1.35v0.1A0.67,0.67,0,0,0,74,41q1.55,0.45,1.6,1.45l-0.05.2V42.7l0.2,0.35a0.67,0.67,0,0,0,.55.2l1.3,0.2a1.57,1.57,0,0,1,.6,1.15l0.2,1.2,0.15,0.75-0.25.9a2,2,0,0,1-1.65.65q-2.05,0-1.9.4l-0.1.2L74.15,49a2.74,2.74,0,0,1-1.85-.6l-0.85.3-0.25.45-0.1.45v0.1a2.77,2.77,0,0,0,.6,1.75l0.4,0.45a3.13,3.13,0,0,1-1.15,2.2l-0.65.05L68.6,54a0.81,0.81,0,0,0-.15,1q0.7,1.8,1.9,1.55l0.85,0.1a1.89,1.89,0,0,1,1.35.6,1.26,1.26,0,0,1,0,1.2q-0.65,1.85.35,2.15A3.1,3.1,0,0,1,73.8,63l0,0.3A1.65,1.65,0,0,0,74.9,64.8a2.4,2.4,0,0,1,1.55,1.6,0.49,0.49,0,0,1-.45.5,2.17,2.17,0,0,0-.55,2,3.11,3.11,0,0,0,.85,1.65,1.32,1.32,0,0,1,.85.85,1.74,1.74,0,0,1,.15,1.55V74a1.81,1.81,0,0,1-.35,1.65,1.87,1.87,0,0,0-.7,1.65L77,77.85h0.15l0.05-.1a3.53,3.53,0,0,1,2.25-1.65,0.74,0.74,0,0,1,.35.85q-0.1,2.1.75,2.25a1.68,1.68,0,0,1,.75.65l0.85,0.7q0.25,0.25,1-1.85,0.2-1.85,1.2-2.25a1.4,1.4,0,0,1,1.45.25l0.5,0.5a1.76,1.76,0,0,0,1,.8L88.4,77l1-1.7,0.85-1.55V73.55a4,4,0,0,1,0-2.7,1.1,1.1,0,0,1,1.15-.7q2.1,0.25,2.7-1.3,0.85-1.6,1.7-1.4L96,67.4l1.15-.9,0.25-1-0.2-.7a1.74,1.74,0,0,1,.45-2.25,7.28,7.28,0,0,1,3.9-1.55h0.15l0-.15a3.42,3.42,0,0,1,.6-1.35l0.15-.15-0.2-.1L100,57.75a1.77,1.77,0,0,1-.45-1.15,3,3,0,0,0-.65-1.8,2.05,2.05,0,0,1-.8-1.75,5.35,5.35,0,0,1,.95-2.65l0.45-1.1-0.05-.25-0.85-.2L98,48.7a2,2,0,0,1-.45-1.5V47.05l0-.45V46.45l-0.1-.05a2.39,2.39,0,0,1-1.05-1.55l0.05-.65,0.1-1.75V42.4l-0.05-.05a3.72,3.72,0,0,1-.85-2.45l0.05-.2A2.81,2.81,0,0,0,95.4,37.75Z" transform="translate(-3.55 0.25)"/><path id="karsun" class="raion"   d="M69.05,35.35l-1.75.15a1.21,1.21,0,0,1-.5-1,1.24,1.24,0,0,0-.95-1.1,1.3,1.3,0,0,0-1.45.65,1.62,1.62,0,0,1-1,.95,1,1,0,0,1-.8-0.4l-0.2-.25-1.25-.05-0.1.1a2,2,0,0,1-1.35.5,1.61,1.61,0,0,1-1-.75,1.69,1.69,0,0,0-2.3,0H56.3a2.47,2.47,0,0,1-2.15-.9l-0.4-.2a1,1,0,0,0-.85.4,1.54,1.54,0,0,1-2,.75,2.43,2.43,0,0,0-1.85.5l-0.1.2,0.15,0.3q1.25,1.5,1.5,1.35h0.1l0.05,0.1a2.28,2.28,0,0,1,.35,1l-0.1.45a1.69,1.69,0,0,1-1.45.8,2.16,2.16,0,0,1-1.3-.6L47.65,38l-2.6.2a1.91,1.91,0,0,1-1.5.45l-0.85-.8-0.35-.2-1.8.4-0.4-.3L40.2,38l0,0.4a5.53,5.53,0,0,1-1.6,3.15l-1.45,1.5,0.5,0a8.84,8.84,0,0,1,1,3.4,1.55,1.55,0,0,1-.15.7l-0.1.15q-0.3,1.35-2.15,1.1H35.55L35.3,49v1a11.59,11.59,0,0,1-.15,2.45l-0.1.5a2.58,2.58,0,0,0,.45,1.5l0.4,0.35L36,55.1a4.32,4.32,0,0,1-.45,1.55l-0.1.1A2.11,2.11,0,0,0,35,58.1q-0.25,1,2,1.15,1.7,0.8,1.65,1.7L39,62l-0.2-.15-0.3-.3,0,1.85a1.5,1.5,0,0,0,.4,1.3,2.21,2.21,0,0,0,1.75-.35l0.25-.1,3.5-.1,1.25,0.1a1.2,1.2,0,0,0,1.05-.35,1.64,1.64,0,0,0,.4-1.2l-0.05-.3,0.1-1.65L47.2,59l-0.05-1.2A4.49,4.49,0,0,1,48,55.55l0.05-.05-0.05,0L47.8,52.4V51.7q0-1.25.55-1.35a1.28,1.28,0,0,1,1.1.9L50.1,52.5a3.35,3.35,0,0,0,1.7.85,2.43,2.43,0,0,1,1.7.3,1,1,0,0,1,.3.75L54.1,55l0.6,0.25h0l0.1-.1a1.39,1.39,0,0,1,.95-0.5,1.09,1.09,0,0,1,.95.45,0.75,0.75,0,0,0,.75.25,2.39,2.39,0,0,0,1.75-1.1,11.83,11.83,0,0,1,3.8-2.45l2-1.1,0.2-.2a1.63,1.63,0,0,1,1.25-.75,1.48,1.48,0,0,1,1.1.75l0.2,0.3,0.15,0a2.14,2.14,0,0,0,.7-1.2l0.05-.25,0.25,0,1.6-.2,0.1-.15V48.9a1.19,1.19,0,0,1,.75-1,1.15,1.15,0,0,1,1.3,0,2.07,2.07,0,0,0,1.5.4l0-.05V48.15q0-.7,2.4-0.75a1.35,1.35,0,0,0,1.2-.45L78,46.4l-0.1-.6a2.67,2.67,0,0,1-.25-1.35l-0.3-.7-0.8-.15a1.17,1.17,0,0,1-1-.25,0.92,0.92,0,0,1-.45-0.8v-0.3q0.15-.4-1.25-0.9a1.25,1.25,0,0,1-.75-1.3v0a2.09,2.09,0,0,1,1.3-1.85l0.75-.3-0.45-.15-0.5-.35L74,37l0.05-.3,0-.3,0.1-.2-0.8.05A1,1,0,0,1,72.6,36a1.46,1.46,0,0,1-.5-0.9l-0.05-.2-0.75.25Z" transform="translate(-3.55 0.25)"/><path id="cherdakli" class="raion"   d="M156,30.3l-0.05.15-0.2.4v0l-0.2.1-0.45.45-0.75-.05a1.73,1.73,0,0,1-.7-0.35L153.3,31a0.5,0.5,0,0,0-.4-0.25h-0.1l-0.15-.05a1,1,0,0,0-.8.45,5.13,5.13,0,0,0-.9,1.75l-0.3.95-0.25.45-0.35.7V35l-0.1.1a0.2,0.2,0,0,1-.2.15l-0.3.3-0.25-.15-1-.2a4.32,4.32,0,0,1-2.3-.65,2.73,2.73,0,0,1-1.3-2.65l-0.15-1.35q-0.55-1.4-1.1-1.35l-0.45.35a2.42,2.42,0,0,1-1.55,1.7q-0.3.15-.55-0.9-0.75-1.65-2-1.6v-0.1l-0.25.05-0.25.2a1.5,1.5,0,0,0-.5.8l-0.1.75L138,32.3v0.35q0,1.9-.6,2.1a2,2,0,0,1-1.5-1l-0.05-.05V33.65q0-.35-1.9-1.9l-3.75.1a9.9,9.9,0,0,0-3,1.55,6.74,6.74,0,0,1-2.7,1.6,6.28,6.28,0,0,1,.2,2.8q-0.1,2.1-2.85,2.75l0.5,1.45q1.35,6.8,2.5,7.4l1.25,1a4.31,4.31,0,0,1,1.35.95q1.85,2.3,1.65,2.8h0.05q0.9-.55,2.7.65,1.05,2.05,2.15,2.2a2.84,2.84,0,0,0,2.2-1.2,1.08,1.08,0,0,1,1.4-.4,1.67,1.67,0,0,1,.6,1.5l-0.35,1.8,0,0.1-0.05.05a3.11,3.11,0,0,0-.9,2.1,4,4,0,0,0,1.05,2.55q0.35-.55,2.6,3.75,1.3,2.8,2.8,2.95a2.42,2.42,0,0,0,2.1-1.4l3.05-4.3-2-2.4-1.65-1.9a2,2,0,0,1-.65-1.4,3.52,3.52,0,0,1,.3-1.25l0.15-.5,0.15-.85a3.26,3.26,0,0,0-.85-2.1q-0.85-.55-1-4l0.05-.4a2.19,2.19,0,0,1,.4-1.7l1.2-.05,1.65,0.2a1,1,0,0,0,1.05-.3,1.22,1.22,0,0,0-.35-0.9l-2.2-2.15q-0.55-.8.4-2.3a2.18,2.18,0,0,1,3.1-.5,1.7,1.7,0,0,0,1.7.35q0.75-.55.5-2.8a2.87,2.87,0,0,1,.05-0.95l-0.05-.1v-0.1l0.45-.9,0.3-.25,0.6,0.05,0.7,0.2,0.25,0.2h0.05l0.75,0.8,0.1,0.05L154,39,154.15,39a0.35,0.35,0,0,0,.4.2h0.25a0.36,0.36,0,0,0,.35-0.2v-0.5l0-.15a3,3,0,0,1,.4-1.5l0.2-.3,0.2-.25,0.25-.4,0.2-.2a1.68,1.68,0,0,1,1.8-.6l0.95,0.05a0.77,0.77,0,0,0,.55-0.35,5.72,5.72,0,0,0,.55-2.9l0.05-.15,0-.55-0.15-.15-0.4-.55-1.25-.7-0.15-.15-0.1-.05-0.8-.15-0.2,0-0.15,0-0.2,0A1.35,1.35,0,0,0,156,30.3Z" transform="translate(-3.55 0.25)"/><path id="melekess" class="raion"   d="M174.45,24.1a10.08,10.08,0,0,0-3.4-1.65l-3.85-.6-0.85-.1a4.46,4.46,0,0,1-1.25,3.45,2,2,0,0,1-1.95-.45l-0.1-.05-0.05.05a8,8,0,0,0-2.35,2.65l-0.2.65,0.2,1.15a5.63,5.63,0,0,1,.25,1.85,9.49,9.49,0,0,1-.75,4,1,1,0,0,1-.65.6h-1.05a1.7,1.7,0,0,0-1.7.5,3.81,3.81,0,0,0-1,2.85v0.3l-0.05,0a1,1,0,0,1-.9.55,2.36,2.36,0,0,1-1.85-1.2q-1.1-1.25-1.35-.9a1.69,1.69,0,0,0-.55,1.8,3.62,3.62,0,0,1-.75,3.35,2.28,2.28,0,0,1-2.3-.35q-1.45-.65-2,0a3,3,0,0,0-1,1.8v0.1l1.2,1.1,1.15,1.15a2.18,2.18,0,0,1,.5,1.15l0,0.35a1.77,1.77,0,0,1-1.55.6l-1.8-.2-0.65-.1-0.05-.05,0,0.1-0.2,1.3V50.2q0.2,3.45.75,3.6a3.38,3.38,0,0,1,1.05,2.5l-0.15,1-0.15.5-0.3,1.1,0.55,1L147,62l1.8,2.2,0,0.25a14.21,14.21,0,0,1,5.5-4.8q3.9-.8,3.45-3.95-0.2-3,3.8-2.65,2.75-.15,3.4-0.85l0.8-.45q1.6-.65,2-0.2l0.2,0.5-0.35,1.2L166,55.1a4.37,4.37,0,0,0-1.2,3.35V59.3q-0.4,2.05-1.25,2.05l-0.05.05-0.1-.05q-0.15-.3-2.2,1.8-1.35,1.55-2.2,1.4a2,2,0,0,1-1.35-1.3,1.7,1.7,0,0,0-.85-1q-0.55-.15-2.2,1.1l-0.75.5q-3.7,2.2-2.9,8.9a3,3,0,0,0,1.7,3,2.22,2.22,0,0,0,2.05-1,3.68,3.68,0,0,1,2.45-1.9l5.55-.3q2.4,0,3.2.9l0.8,1.05a1.78,1.78,0,0,0,1,1.4l2.6,0.2L172,75a5.51,5.51,0,0,1,2.8-1.5q2.4-.45,2.7,1.6a3.34,3.34,0,0,0,2.35,2.05l0.15,0,4.3,0.1q1.8-.85,1.95-2V75.1a2.69,2.69,0,0,0-1.15-2l-2.3-2a2.29,2.29,0,0,1-1-1.75V69.25a3.51,3.51,0,0,1,1.1-2l-0.4-.35V66.7a7.42,7.42,0,0,0-1.4-3.85,8,8,0,0,0-1.95-2.15q-1.15-.7-1.05-1.25a0.76,0.76,0,0,1,.3-0.6,1.64,1.64,0,0,0,.4-1.05l-0.15-.35a0.85,0.85,0,0,1-.45-0.7,2.26,2.26,0,0,1,.45-1.15l0.65-1,0.1-.2-1-.35-0.2-.1,0.05-.2,0.1-.8a1.5,1.5,0,0,0-.45-1.25,5.36,5.36,0,0,0-2.8-1l-0.45-.1a1.51,1.51,0,0,1-1.3-1.75l0.1-.85,0.05-.45A3.89,3.89,0,0,1,175,45.4a3.43,3.43,0,0,1,1.45-.6,1.75,1.75,0,0,0,1.3-.65,2.13,2.13,0,0,1,.75-1.45l0.8,0.15h0.45a2.6,2.6,0,0,0,1.15-1.4,3.69,3.69,0,0,1,1.7-2.1,6.48,6.48,0,0,0,1.75-3.1l0.4-1.65,0.45-1.2,0.35-1.1L185.3,32a2.47,2.47,0,0,1-1.05-1.45l0-1.2-0.05-1.5,0.2-.15-0.15,0a29.94,29.94,0,0,1-5.05-1.35A18.71,18.71,0,0,1,174.45,24.1Z" transform="translate(-3.55 0.25)"/><path id="novomalikla" class="raion"   d="M184.75,30.4a2.42,2.42,0,0,0,.85,1.1,0.83,0.83,0,0,1,.4.75l-0.35,1.35-0.45,1.15-0.4,1.45a6.51,6.51,0,0,1-1.9,3.55,3.09,3.09,0,0,0-1.5,1.75,3.14,3.14,0,0,1-1.5,1.8l-1-.05-0.05,0-0.15-.05-0.05.05a1.43,1.43,0,0,0-.4,1,2.13,2.13,0,0,1-1.85,1.05,12.19,12.19,0,0,1-1.15.55,3.18,3.18,0,0,0-1.15,1.65L174,48.85a1,1,0,0,0,.85,1.15l0.45,0.1a5.51,5.51,0,0,1,3.05,1.1,2.28,2.28,0,0,1,.65,1.65l0,0.6-0.05.2H179l0.65,0.1,0.3-.2,0.15,0.15,0.1,0.15a6.74,6.74,0,0,1-1.1,2.05l-0.4.75,0.05,0.1,0.15,0.2a1,1,0,0,1,.45.85v0.05a2.35,2.35,0,0,1-.65,1.45l-0.1.05,0.05,0.1a1,1,0,0,0,.7.75,8.44,8.44,0,0,1,2.25,2.35,8.19,8.19,0,0,1,1.45,4.15l0,0.5,1.3-.95q1.4-.8,5.9-2.75a5.27,5.27,0,0,0,2.85-2.7L193.6,59l0.05-1.75,0.1-1.75-0.1-1.65-0.15-.6-0.25-1.4a6.72,6.72,0,0,1,.9-2.9,6.56,6.56,0,0,0,.65-2.45,3.73,3.73,0,0,0-1.3-2.7,15.82,15.82,0,0,1-2.7-3.9,14.07,14.07,0,0,1-1.85-6.4V32.8q-0.6-5.05-4.3-5.15Z" transform="translate(-3.55 0.25)"/><path id="radishevo" class="raion"   d="M100.5,135.4l-0.75-1.5a4.1,4.1,0,0,0-3.35-1.05H95.75a3.77,3.77,0,0,0-2.75.9l-0.3.35q-0.5,1.45-3-.25a1.88,1.88,0,0,0-1.6-.45,2.17,2.17,0,0,0-1.25,1.2l-0.1.15-1.3.1-1.15.1-0.85-.2a2,2,0,0,1-.4-1.65q0-.9-0.5-0.95a0.92,0.92,0,0,0-.7.95,1.42,1.42,0,0,1-.4,1.05,1.89,1.89,0,0,1-1.2.5l-0.3-.1,0-.25-1.15-.95-0.65-.55-0.1-.1-0.1.05a1.73,1.73,0,0,0-1.1,1.3q-0.4,1.6-.95,1.6l-0.15.1a0.94,0.94,0,0,0-.3.85,0.77,0.77,0,0,0,.75.35l1.25-.15,1.65,0.15a1.41,1.41,0,0,1,.15,1.2q-0.15,1.35.2,1.5l0.35,0.15,0.35-.25a2.78,2.78,0,0,0,1.15-1.05,1.07,1.07,0,0,1,1.05-.6A2.35,2.35,0,0,1,84.3,139l2.1,2.4v0.15q0.5,0.7-.7,3a11.25,11.25,0,0,0-1.85,2.75q-0.85.6-1.1,2.95a1.6,1.6,0,0,0,1.25,1q4.55,1.25,4.5.85a10.17,10.17,0,0,0,4.2-1.6q1.4-.95,2-0.2l0.35,0.15a5.14,5.14,0,0,0,2-1,2,2,0,0,1,2.55.2l0.45,0.35a6.08,6.08,0,0,1,2.8,3.2q1.5-2.55,2.7-2.1h4.75a6.38,6.38,0,0,1,3.2,1.2,1.23,1.23,0,0,0,1.2.4q1.1-.2,2-2.15l2.15-4.2,1.5-2.75a2.92,2.92,0,0,0,.35-2,2.28,2.28,0,0,0-1.55-1.4q-3.65-1.65-3.4-2.05a6.37,6.37,0,0,1-1.55-2.8,3.13,3.13,0,0,0-1.7-2.4q-1.2-.25-2.45,1.9l-0.1.1a2,2,0,0,1-1.8.5,4.83,4.83,0,0,1-2.2-3.1l-0.2.4a5.21,5.21,0,0,0-2.5,2.5q-1,1.65-1.9,1.1h-0.1A1.18,1.18,0,0,1,100.5,135.4Z" transform="translate(-3.55 0.25)"/><path id="pavlovsk" class="raion"   d="M69.7,149.45V149.3a6.66,6.66,0,0,0-1.2-2.4l-0.2-.25-0.15-.45,0.3-.7h0.1l-0.25-.65a2.38,2.38,0,0,0-1.6-.55l-2.9.25-0.45-.05-1.85-.05-0.1.1a1.67,1.67,0,0,1-1.4,1.3,0.89,0.89,0,0,1-1-.75,2,2,0,0,0-1-1.3H54.6l0,1.15v0.15q-0.2.75,1.15,2.1a2.06,2.06,0,0,1,.85,1.8,3.69,3.69,0,0,1-1.7,3q-2.6,2-2.55,2.45v0.05l-0.05,0q-0.7.35-1.2,2.9L51,160.25a1.83,1.83,0,0,0,.4,1.45,2.68,2.68,0,0,0,2.4.45,5.69,5.69,0,0,1,4.4.9,2.7,2.7,0,0,1,.95,2.2,2.34,2.34,0,0,0,1.5,2.1q2,1,4.9-1.2,1.4-1.45,4.3-.3L72,166,73.75,166l0.4,0.2a1.8,1.8,0,0,0,2.6-.25l1.2-.9-0.35-.15a3,3,0,0,0-2-2q-2.2,0-2.5-.65l-0.1-.6-0.2-.6a1.59,1.59,0,0,0-1.05,0,4.88,4.88,0,0,1-4-1.45l-0.4-.35a3.74,3.74,0,0,1-1.75-2.7,1.49,1.49,0,0,1,.9-1.1q2-.85,1.2-3.65a2.15,2.15,0,0,1,.1-1.65,1.94,1.94,0,0,1,1.3-.55l0.35,0Z" transform="translate(-3.55 0.25)"/><path id="stkulatka" class="raion"   d="M99.3,150.15q-1.3-.9-2-0.25a4.8,4.8,0,0,1-2.2,1.1l-0.65-.2q-0.55-.6-1.45.15a6.76,6.76,0,0,1-2.55,1.25l-1.9.45q-0.55.35-4.75-.85a2.19,2.19,0,0,1-1.65-1.4l0-.55A5.29,5.29,0,0,1,83.4,147a12.41,12.41,0,0,1,1.9-2.8,2.44,2.44,0,0,0,.65-1.85l0-.6-0.05-.05-2-2.4a1.79,1.79,0,0,0-1.5-.85,0.62,0.62,0,0,0-.6.35,3,3,0,0,1-1.3,1.25l-0.25.15-0.15.15a1.7,1.7,0,0,1-.8,1.55,1.41,1.41,0,0,1-1.4-.7q-1.55-1.5-2.55-.4l-0.75.4-1,.6a2.9,2.9,0,0,1-1.2.6l-0.65.15q-1.7,0-1.75,1.25a2.62,2.62,0,0,1-.85,1.85q-0.55.55-.3,0.75l0.15,0.25a4.89,4.89,0,0,1,1.2,3.05,0.62,0.62,0,0,1-.5.4l-0.5.1-0.9.3a2.06,2.06,0,0,0,0,1.25A3.19,3.19,0,0,1,66.75,156a0.88,0.88,0,0,0-.6.65,3.58,3.58,0,0,0,1.5,2.25l0.45,0.3a4.25,4.25,0,0,0,3.55,1.35l1.5,0.15a1.14,1.14,0,0,1,.35.95l0.05,0.3v0.1l0,0,2.1,0.3,0.1,0.05a4.88,4.88,0,0,1,1.15.7,3,3,0,0,1,1.2,1.85,22.44,22.44,0,0,1,3.45-1.3l1.3-.65a14.08,14.08,0,0,1,2-.85,3.13,3.13,0,0,1,3,.9,1.21,1.21,0,0,0,1.35.2q1.3,0.15,1.7-2.55,0.1-4.15,1.8-5.05,1.2-1,3.9-.4l0.15,0.05,0.05,0.15A3.5,3.5,0,0,0,99,157.1q1.3,0,2.5-1.85l1.25-1.9-0.5,0a5.12,5.12,0,0,0-2.55-2.85Z" transform="translate(-3.55 0.25)"/><path id="nikolaev" class="raion"   d="M77.5,110.4l-0.1,0-2.65-.5a1.77,1.77,0,0,0-1.5.9l-0.25.3-3.75.2H69.1l-0.05.1a2.41,2.41,0,0,1-1.7.65l-1.6.3H65.4L65.2,112l-0.25-.85q-0.75-1.8-1.6-1.35H63.3l0,0-0.25.9a1.37,1.37,0,0,1-.6,1.25,1.43,1.43,0,0,1-1.3-.7l-0.5-.55-0.25-.1-0.25.7a0.91,0.91,0,0,1-.9.25,1.48,1.48,0,0,1-1.05-1.25l-0.25-.4a1.52,1.52,0,0,0-1.15.45l-2.4.3H51.1a13.13,13.13,0,0,1,1.55,5.65q0.65,7.1,2.05,7.75l0.25,0.35q1.2,1.8,1.45,7.4a19.15,19.15,0,0,1-.25,3.15q-1.65,4.9-1.5,7l-0.05,1.3h3.55l0.1,0.05q0.45-.1,1.3,1.65l0.4,0.4a1.24,1.24,0,0,0,.95-0.9q0.75-1.05,2.55-.5l0.3,0,1.05,0,0.95-.1,0.9-.05a2.87,2.87,0,0,1,2.05.7l0.3,0.4,0.15-.25,0.25-.9a2,2,0,0,1,2.2-1.8l0.6-.1a2,2,0,0,0,1-.5l1.15-.7L75,140.3q1.15-1.3,3.2.55a1.08,1.08,0,0,0,.85.5l0.45-1v-0.15l-0.25-.1q-0.7-.2-0.5-2.1l-0.05-.75-1.15.05-1.4.1q-1.2-.2-1.2-0.7a1.4,1.4,0,0,1,.4-1.4l0.35-.2q0.3,0,.65-1.2Q77,132.3,77.9,132.2l0.1,0v-0.1a1.88,1.88,0,0,1,.65-0.75,5,5,0,0,1,1.6-1h0.1l0.05-.1a1.44,1.44,0,0,0-.65-1.25l-0.35-.45a5,5,0,0,1,1-2.8l0.85-3.35q0.2-1.45-.15-1.55l-0.6,0-1.7.3a1.73,1.73,0,0,1-1.55-.75l-0.4-.35a2.15,2.15,0,0,1-.5-1.5v-0.15a2.83,2.83,0,0,1,.45-1.65l0.65-.85,0.05-.05-0.2-1.35a1.58,1.58,0,0,1,.3-1.05l0.15-.85L77.5,110.5v-0.1Z" transform="translate(-3.55 0.25)"/><path id="bazarnosizgan" class="raion"   d="M57.1,76.8l-0.15-.35-1.1-.15a5.47,5.47,0,0,1-3.5-.45,3.53,3.53,0,0,1-1.7-.65l-0.1-.05-0.1.1a7.34,7.34,0,0,0-1.85,1.8,2.49,2.49,0,0,1-2.35,1.25l-1.4.45-1.2.5,0-.05-1.05.85a8.36,8.36,0,0,1-2.15,1.7,6.14,6.14,0,0,0-2.05,2.3L36.95,87q-2.15,2.7-2.85,2.1H32.8l-1.9,0a15.61,15.61,0,0,0,1.9,5l0.95,2.1q1.35,3.75,6.5,5.4a12.27,12.27,0,0,1,4.35,1.8,3.72,3.72,0,0,1,1.25-.5l0.6-.5,0-.45a5.73,5.73,0,0,0-.9-2.6,1.86,1.86,0,0,1-.35-1l0-.25a1.52,1.52,0,0,1,.9-0.85L47,96.85l0.25-.45L46.9,96l-0.05,0h-0.1a4.51,4.51,0,0,1-1.65-1.4,1.85,1.85,0,0,1-.65-1.65,2.36,2.36,0,0,1,2.1-.75h0.1l0,0,0.9-.7,2,0.05,0.15,0.15,0.15-.65V90.8l0-.1L51,88.55a2.88,2.88,0,0,1,1.55-2.05,4.65,4.65,0,0,0,.85-2.05,3.79,3.79,0,0,1,2.15-2.4,2.83,2.83,0,0,0,.7-2.3V79.5A4.7,4.7,0,0,1,57,77.15Z" transform="translate(-3.55 0.25)"/><path id="novospask" class="raion"   d="M96.7,110.4l-0.35.05a5.81,5.81,0,0,0-2.65,1.8l-3.6.2a22.58,22.58,0,0,1-2.8-1.35l-2.85-.1-3.1.35-3-.5-0.3-.1,0.05,0.3,0.15,1.4a2,2,0,0,1-.3,1.25l-0.15.7,0.25,1.4v0.1l-0.9,1.2a2,2,0,0,0-.3,1.2v0.15l0.35,1.15,0.4,0.4a1.34,1.34,0,0,0,1.1.6l1.55-.3,1.15,0.15a1.37,1.37,0,0,1,.45,1.15l-0.1.85q-0.8,3.7-1,3.55a6.87,6.87,0,0,0-1,2.25v0.15l0.1,0a2.07,2.07,0,0,1,1,1.65v0.1a0.6,0.6,0,0,1-.45.6,5.56,5.56,0,0,0-1.5.95l-0.5.55L79,132.85a3.19,3.19,0,0,1,1.3,1.1l0.1,0.1,0.1-.05a0.86,0.86,0,0,0,.7-0.9,1.47,1.47,0,0,1,1.3-1.5,0.86,0.86,0,0,1,.7.4,2.07,2.07,0,0,1,.25,1.1,1.84,1.84,0,0,0,.25,1.25l0.45,0.05H84.4l1.9-.15,0-.1a3,3,0,0,1,1.5-1.3,2.54,2.54,0,0,1,2.1.55q1.9,1.45,2.3.35l0.3-.4a4.48,4.48,0,0,1,3.2-1.05h0.6a4.42,4.42,0,0,1,3.8,1.3l0.8,1.6,0.2,0.6h0.1l0.15,0.05q0.6,0.4,1.25-.85,1.35-2.45,3.15-2.8l-0.2-.65V131.4a1.8,1.8,0,0,1,1-1.65,0.71,0.71,0,0,0,.4-0.8v-0.4a1.88,1.88,0,0,0-1-1.6H105.8l-0.1-.2a2.2,2.2,0,0,1-.2-1.3l0-1.55-0.35-2a4.63,4.63,0,0,0-2.1-2.9,10.65,10.65,0,0,1-2.4-2.25l-0.2-.3a6.22,6.22,0,0,1-1.55-3.9,5.08,5.08,0,0,1,.3-1.7l-0.5.05A2,2,0,0,0,96.7,110.4Z" transform="translate(-3.55 0.25)"/><path id="kuzovatovo" class="raion"   d="M101.7,61.5h-0.2A6.62,6.62,0,0,0,98,63a1.17,1.17,0,0,0-.25,1.6l0.2,0.8a1.68,1.68,0,0,1-.3,1.35,2.88,2.88,0,0,1-1.55,1.15H95.95q-0.7-.1-1.3,1.1-0.75,1.9-3.25,1.65l-0.5.25a3.72,3.72,0,0,0-.2,2.35q0.55,0.2-.8,2.25l-1,1.7a2.27,2.27,0,0,1-1.45,1.3,2.15,2.15,0,0,1-1.55-1l-0.4-.4-0.95-.2a2.23,2.23,0,0,0-.85,1.85,4.32,4.32,0,0,1-1,2.1l-0.1.05V81a3,3,0,0,0,.85,1.85,6.09,6.09,0,0,0,1.8.8l0.1,0a2.57,2.57,0,0,1,1,2,1.49,1.49,0,0,1-1.25,1.05l-1.75.1a0.74,0.74,0,0,1-.2-0.55v-0.4l0-.1A1.93,1.93,0,0,0,82,85a0.81,0.81,0,0,0-.6.4l-0.9,1.1-0.85,1.1q-0.85,1.2-3.5,1.7l-1.45.1a1.56,1.56,0,0,0-.35,1.2q-0.15,1.9-.9,2a2.6,2.6,0,0,0-.8,1.55l0,0.3,1.1,1.05,0.1,0.05,0,0a3,3,0,0,1,.45,1.35l-0.1.4a1.05,1.05,0,0,1-.9.65l-1.45-.2-0.35-.45L71.4,97.1a1.47,1.47,0,0,0-1.8.95L69.15,99.8l0,0.05a1.63,1.63,0,0,0-.6,1.25l0.85,0.2q1.45-.75,1.45-1.15l0.05-.1,0.1-.05,1.35,0.1a1.76,1.76,0,0,1,.45,1.6,2.08,2.08,0,0,1-.8,1.8l-0.6.05a1.4,1.4,0,0,0-1.1.35,0.82,0.82,0,0,0-.1.8,8.16,8.16,0,0,1,.05,3.1,6.82,6.82,0,0,1-.6,2.75l-0.1.2,0.2,0.05,2.9-.1,0.25-.3a2.13,2.13,0,0,1,1.85-1,6.86,6.86,0,0,1,3.2.75,9.26,9.26,0,0,0,3.45.75l1.5-.2,1.3-.15h0.2l3.25,0.15,2.7,1.3,3-.05A6.16,6.16,0,0,1,96.35,110l0.3-.05a3.25,3.25,0,0,1,2.65.85l0.75-1.4,2.35-3.5,0.1-.15-0.4-.05a8.17,8.17,0,0,0-2.8-3.35,2.19,2.19,0,0,1-.95-1.75v-0.4a2,2,0,0,1,1.6-1.55l0.5-.35,0.05-.3-0.3-1.05a2,2,0,0,1-.35-1.1,1.78,1.78,0,0,1,.7-1.4l0.3-.45a0.91,0.91,0,0,0-.65-0.6q-0.25,0-.25-0.45l0.15-1.85v-0.3a1.43,1.43,0,0,0-.35-1.05,2.36,2.36,0,0,0-1.65-.45H97.95a1.89,1.89,0,0,1-1.55-.9l-0.2-.2a6.39,6.39,0,0,1-.8-3.6v-0.2a2.2,2.2,0,0,1,.4-1.6l1.1-.85-0.3-.1a1.56,1.56,0,0,1-1-1.5V80l0.15,0a1.86,1.86,0,0,0,.75-1.3l-0.25-.85a4.28,4.28,0,0,1-.4-1.6,4.1,4.1,0,0,1,2.6-4,1,1,0,0,0,.95-0.8l-0.2-1.45A1.54,1.54,0,0,1,101,68.45l0.4-.1,0.05,0a3.74,3.74,0,0,0,.9-2.6,6.9,6.9,0,0,0-.45-2.6l-0.2-1.4V61.5Z" transform="translate(-3.55 0.25)"/><path id="cengeley" class="raion"   d="M137.75,68l-3.9-4.3-7-7.55-0.4-.3A3.41,3.41,0,0,0,124,57.7l-0.8,1a2.3,2.3,0,0,1-2.1.75,1.66,1.66,0,0,1-1.15-1.15,1,1,0,0,0-.6-0.8q-0.2-.35-1.55,1.8a2.63,2.63,0,0,1-1.5,1.5,1.94,1.94,0,0,1-1.5-.75l-0.9-.7-1-.15a1.19,1.19,0,0,0-.55,1.05,6.07,6.07,0,0,1-.95,2.35l-0.05.15V62.8a5.17,5.17,0,0,0,.55,2.6l0.3,0.05q2.6-.2,2.75,1.25l0.05,1-0.05.65h0.15A1.79,1.79,0,0,0,116.2,68l1.7-.1a2.23,2.23,0,0,1,.6,1.7l-0.05.7a28.82,28.82,0,0,0,1,5.3,6.39,6.39,0,0,1,.55,2.6l0.05,0.25a4.93,4.93,0,0,0,1.45,2.75,7.33,7.33,0,0,0,4.9,2.2l0.25,0.35a2.2,2.2,0,0,1,1.6-.45l8.35-.1q0.8,0.5,1.45-2.7l-0.1-2.55q0.15-.4-0.85-1.5a0.82,0.82,0,0,1-.15-1.1q0.3-.65,1.45-0.2l2.4,0.1a2,2,0,0,0,.1-2.25,15.77,15.77,0,0,0-2.6-4.3Z" transform="translate(-3.55 0.25)"/><path id="terenga" class="raion"   d="M114.35,67.6l0-.75q0.25-.9-2-0.85a1,1,0,0,1-.75-0.2,5,5,0,0,1-.8-3.2V62.5l-0.05-.05a17.89,17.89,0,0,1-3.85-4.2,1.45,1.45,0,0,0-.85-1,1.19,1.19,0,0,0-.8.6l-0.3.35a2,2,0,0,1-1.7,1.25H103l-0.05,0a3.11,3.11,0,0,0-.8,2.1l0.2,1.3a8.76,8.76,0,0,1,.5,2.75,4.3,4.3,0,0,1-1.15,3.1l0,0.05L101,69q-1.3,0-1.3.9l0.15,0.8,0.1,0.7q0.2,0.65-1.35,1.25a3.49,3.49,0,0,0-2.2,3.5l0.35,1.4,0.3,1v0.15a2,2,0,0,1-.85,1.45l-0.1.05v0.1a1,1,0,0,0,.75,1,0.76,0.76,0,0,1,.6.55l-0.8.85-0.55.4L95.9,84.5a6.56,6.56,0,0,0,.7,3.3l0.15,0.15a1.75,1.75,0,0,0,1.2.8H98a2.72,2.72,0,0,1,2.1.6,1.89,1.89,0,0,1,.5,1.4l-0.05.35-0.1,1.8,0.1,0.05a1.35,1.35,0,0,1,.8.9v0.1a1.15,1.15,0,0,1-.5.9,1.19,1.19,0,0,0-.5.95l0.25,0.85a2.93,2.93,0,0,1,.35,1.3l-0.1.5a1.14,1.14,0,0,1-.85.65,1.46,1.46,0,0,0-1.15,1.15l-0.05.3a1.59,1.59,0,0,0,.75,1.3,8.4,8.4,0,0,1,3,3.7A3,3,0,0,1,106,104a5.07,5.07,0,0,0,6.35-.4l3.15-2.9,1.8-1.5a2.87,2.87,0,0,0,.6-1.6l0-.3a1.78,1.78,0,0,0-.8-1.2l-1.7-1.75-0.1-.95a1.13,1.13,0,0,1,.2-0.9l0.25-.25,1,0.6a2.3,2.3,0,0,0,2,.8,1.64,1.64,0,0,0,1.05-1.15l0.75-1.2a2.49,2.49,0,0,1,2.2-.8l2.85,0,1.7-.25q0.75,0,2-1.7,0.25-1-1.2-2.3-1.8-1.6-1.6-2.35a8.12,8.12,0,0,1-5.4-2.35,5.45,5.45,0,0,1-1.65-3.05V78.2a6.88,6.88,0,0,0-.5-2.35,31.11,31.11,0,0,1-1.1-5.65,2.3,2.3,0,0,0-.3-1.85l-1.15.1q-1.25.7-1.7,0.35A1.29,1.29,0,0,1,114.35,67.6Z" transform="translate(-3.55 0.25)"/><path id="barish" class="raion"   d="M75.85,77.55l-0.15-.2-0.3.15a3.56,3.56,0,0,1-2.15.65q-0.85-.3-0.95-2.85l-0.15-.65V74.5L72,74.55q-0.3-.1-1,1a1.07,1.07,0,0,1-.65.75l-0.5-.45a0.45,0.45,0,0,0-.55-0.35,1.31,1.31,0,0,1-1-.2,1.49,1.49,0,0,1-.55-1,2,2,0,0,0-.2-1.5l-1.05-.2a1.53,1.53,0,0,0-1.2.8q-0.75,1-1.25.9a1.23,1.23,0,0,1-1-.7L62.4,73l-0.1,0-0.05,0a2.11,2.11,0,0,1-2.35-.3,2,2,0,0,0-2.15-.3l-0.3,0a4,4,0,0,0-2.35,1.7,2.47,2.47,0,0,1-1.3,1.3l-0.45.2,0.45,0.1,1.85,0.1a1.42,1.42,0,0,1,1.75.25l0.25,0.7a1.43,1.43,0,0,1-.15.65,3.88,3.88,0,0,0-.7,2.1V79.8a3.3,3.3,0,0,1-1,2.7A3.6,3.6,0,0,0,54,84.45,4.18,4.18,0,0,1,52.7,87a2.37,2.37,0,0,0-1.15,1.5,5.71,5.71,0,0,1-1.1,2.35V91a1.13,1.13,0,0,1-.35.8l-0.75.05-1.55.05-1,.75H46.7A2.13,2.13,0,0,0,45,93.1v0.1a1.5,1.5,0,0,0,.55.9l1.1,1.1,0.1,0v0a1.83,1.83,0,0,1,1.05,1.2v0.05a1,1,0,0,1-.45.8l-0.85.55-0.65.5v0.1l0.25,0.7a5.77,5.77,0,0,1,1,2.85l-0.1.65a1.36,1.36,0,0,1-.95.85l-0.9.3a10,10,0,0,1,1.95,1.75l0.9,1a23.49,23.49,0,0,1,3,3.85l0.45-.25,5.05-.2a1.94,1.94,0,0,1,1.65-.5,1.13,1.13,0,0,1,.55.8,0.89,0.89,0,0,0,.5.75l0.45,0.2,0.1-.4a0.92,0.92,0,0,1,.55-0.7q0.45-.15,1.25.85l0.6,0.65,0.15-.15,0.2-.7a1.39,1.39,0,0,1,.8-1.45q1.2-.55,2.15,1.65l0.25,0.85,0.15,0,1.55-.2a2,2,0,0,0,1.9-1.55l0.45-2.2,0.1-1.3-0.2-1.65,0-.45a1.13,1.13,0,0,1,.25-0.75,2,2,0,0,1,1.6-.6l0.25,0.05H71.7q0.2,0.15.5-1.4a1.13,1.13,0,0,0-.25-1.1l-0.65-.05H71.25l0,0.05a3.15,3.15,0,0,1-1.75,1.25,1.46,1.46,0,0,1-1.45-.5l0-.35a2.58,2.58,0,0,1,.7-1.45l0.45-1.6q1.1-1.85,2.7-1.25L72,96.7v0.2l0.25,0.4,1,0.1,0.5-.35,0-.25-0.3-.9-0.05,0H73.4l-1.25-1.3-0.1-.5a3.37,3.37,0,0,1,1-2l0.1-.1h0.1q0.4-.05.5-1.4a1.86,1.86,0,0,1,.5-1.6l1.9-.2a4.92,4.92,0,0,0,3-1.6L80.9,85a1.46,1.46,0,0,1,1-.65,2.48,2.48,0,0,1,1.6,1l0.1,0.15,0.1,0.3v0.3l-0.1.2,0.15,0,1.2-.2a1.14,1.14,0,0,0,.85-0.65v-0.1A2.24,2.24,0,0,0,85,84a6.15,6.15,0,0,1-1.8-.8,3.33,3.33,0,0,1-1-2.1V81H82a2.43,2.43,0,0,1-1-.9l-0.3-.35-0.05-.1h0q-1.2-.35-1.25-2.25l0-.9-0.25.15L77.7,78l-0.6.4A1.74,1.74,0,0,1,75.85,77.55Z" transform="translate(-3.55 0.25)"/><path id="veshkaima" class="raion"   d="M70.65,50l0-.15-1.4.1-0.05.1a1.83,1.83,0,0,1-1,1.3,0.88,0.88,0,0,1-.9-0.5l-0.65-.5-0.8.55-0.2.25a12.58,12.58,0,0,1-2.15,1.2,12.61,12.61,0,0,0-3.55,2.25,3.19,3.19,0,0,1-2.2,1.35,1.46,1.46,0,0,1-1.25-.45,0.53,0.53,0,0,0-.5-0.25l-0.65.4a0.82,0.82,0,0,1-.85.15,1.45,1.45,0,0,1-1.05-1.35l-0.15-.3-1.3-.2H51.8a3.11,3.11,0,0,1-2.75-2.45l-0.5-.75-0.1,1V52.5l0.2,3.1,0.05,0.1-0.1.1a4.54,4.54,0,0,0-.85,2V58l0.1,1.1-0.1,1.65L47.7,62.4v0.3a2.26,2.26,0,0,1-.5,1.6,1.88,1.88,0,0,1-1.5.5l-2.6-.25V64.8l0.35,1.75a2.59,2.59,0,0,0,.9,1.7,1.33,1.33,0,0,1,.95.95v0.1l-0.05.15L45.3,69.5l0.6,0.35a1,1,0,0,0,.85-0.65A1.2,1.2,0,0,1,48,68.55a2.45,2.45,0,0,1,.9,2.1,4.29,4.29,0,0,0,.7,3.15,5.46,5.46,0,0,0,2.85,1.5,3.07,3.07,0,0,0,2.2-1.3,4.27,4.27,0,0,1,2.75-2.05l0.25-.1a2.63,2.63,0,0,1,2.65.45l1.9,0.1,0.15,0,0.1,0a2.28,2.28,0,0,1,1.1,1.05L64.1,73.8a1,1,0,0,0,.8-0.6,2.17,2.17,0,0,1,1.6-1.1,2,2,0,0,1,1.5.35,2.07,2.07,0,0,1,.4,1.35v0.6l0.3,0.55L69.25,75a0.8,0.8,0,0,1,.95.45l0.2,0.2,0.15-.3Q71.3,73.9,72.15,74a1.13,1.13,0,0,1,.7,1.25q0.1,2.15.7,2.4L75.2,77l0.55-.25v-0.1a3,3,0,0,1,.9-1.55l0.2-.55-0.1-1.25,0.2-1-0.2-.85-0.5-.55A2.92,2.92,0,0,1,75,68.8l-0.05-.4a2.42,2.42,0,0,1,.85-2.05l0.2,0-0.1-.2a2.18,2.18,0,0,0-1-.85,2.27,2.27,0,0,1-1.5-2.05V62.9a2.89,2.89,0,0,0-.7-2.05,1.63,1.63,0,0,1-.85-1.4,4,4,0,0,1,.3-1.35l0.1-.5-0.05-.25L71.2,57l-0.8-.1q-1.45.35-2.4-2l-0.1-.6a1.05,1.05,0,0,1,.4-0.9l2.25,0.05,0.05,0.05,0.1-.05a2.43,2.43,0,0,0,.9-1.6V51.75l-0.1-.05A2.47,2.47,0,0,1,70.65,50Z" transform="translate(-3.55 0.25)"/><path id="inza" class="raion"   d="M38.25,46.4a6.62,6.62,0,0,0-1-3.25q-5.85,4.5-9.55,5.35l-9.4,1.65a6.86,6.86,0,0,0-3.9,2.2l-2.8,4.3L11.15,58.2q0.05,2-3.2,4.85-4.05,3.7-3.55,4l-0.05,0V67.2a5.45,5.45,0,0,0-.8,2.25L3.7,70q0.4,0.45,1.85-.25l5.55-4.25a3.62,3.62,0,0,1,2.4-1.2,4.3,4.3,0,0,1,3.15,1.5l4.15,3.9q0.9,0.45,1.4,3.8l-0.05,1.2a5.79,5.79,0,0,0,2.7,4.8l0.25,0.2a17.29,17.29,0,0,1,3.15,2.95,10.72,10.72,0,0,1,2.5,5.4l0,0.55,3.35-.05Q34.7,89,36.5,86.7q1.65-4,3.8-5.4l3.4-2.65,0.9-.4a3.73,3.73,0,0,1,1.7-.5,2.06,2.06,0,0,0,1.8-.85A6.11,6.11,0,0,1,49.9,75L50,74.85l-0.8-.65a3.22,3.22,0,0,1-.9-2.15V70.6a1.92,1.92,0,0,0-.65-1.55l-0.5.45a1.76,1.76,0,0,1-1.35.9,1.48,1.48,0,0,1-1.15-.75l-0.1-.2,0.15-.15-0.05-.1-0.6-.5a5.81,5.81,0,0,1-1.55-4V64.55h-0.2l-1.2.2-0.25.1a2.4,2.4,0,0,1-2.2.3A1.77,1.77,0,0,1,38,63.4a7.15,7.15,0,0,1,.15-2.3V61a1.54,1.54,0,0,0-1.1-1.15q-2.5,0-2.55-1.7a2.53,2.53,0,0,1,.55-1.75l0.4-1.25V55l-0.1,0a1.09,1.09,0,0,1-.55-0.6,3.56,3.56,0,0,1-.15-2.1L34.8,49l0.5-.85,1.2-.1A1.15,1.15,0,0,0,38,47.2l0.1-.2Z" transform="translate(-3.55 0.25)"/>

<rect class="tooltip_bg" id="tooltip_bg" x="0" y="0" width="52" height="20" visibility="hidden"/>
<text pointer-events="none" id="tooltip" class="tooltip" x="0" y="0" visibility="hidden"></text>
<text pointer-events="none" transform="matrix(0.5208107829093933,0,0,0.6756757497787474,100.45234979894622,34.548262964574405) " font-size="4" id="svg_12" class="title">УЛЬЯНОВСК</text>
  <text pointer-events="none" y="0" x="0" class="tooltip" id="tooltip"/>
  <text pointer-events="none" stroke="null" transform="matrix(0.7794702933980487,0,0,1.075798834736381,14.073793322222768,-2.113042155959814) " xml:space="preserve" text-anchor="start" font-family="Oswald, sans-serif" font-size="4" id="svg_13" y="54.54896" x="78.44789" fill-opacity="null" stroke-opacity="null" stroke-width="0" fill="#000000">Майнский</text>
  <text pointer-events="none" stroke="null" transform="rotate(8.51183795928955 56.07405090332041,158.6644134521484) matrix(0.73734616188032,0,0,1.3213937178497237,13.850285713634928,-38.67715525492718) " xml:space="preserve" text-anchor="start" font-family="Oswald, sans-serif" font-size="4" id="svg_14" y="150.81213" x="45.6969" fill-opacity="null" stroke-opacity="null" stroke-width="0" fill="#000000">Павловский</text>
  <text pointer-events="none" stroke="null" transform="rotate(7.027159214019775 79.61949157714797,153.14334106445307) matrix(0.7460486816850471,0,0,1.1189949461572646,14.725151453007602,-7.997574946011923) " xml:space="preserve" text-anchor="start" font-family="Oswald, sans-serif" font-size="4" id="svg_15" y="145.35702" x="68.54684" fill-opacity="null" stroke-opacity="null" stroke-width="0" fill="#000000">Старокулаткинский</text>
  <text pointer-events="none" stroke="null" transform="rotate(0.971221923828125 98.42790985107608,140.68765258789) matrix(0.7797840377815695,0,0,1.0627173233896512,14.234672391238876,-0.8912342191922882) " xml:space="preserve" text-anchor="start" font-family="Oswald, sans-serif" font-size="4" id="svg_16" y="134.60292" x="94.87236" fill-opacity="null" stroke-opacity="null" stroke-width="0" fill="#000000">Радищевский</text>
  <text pointer-events="none" stroke="null" transform="rotate(2.373587131500244 63.41535568237397,122.99051666259773) matrix(0.8421172514777598,0,0,1.0061278972467156,-20.161317992191393,-7.1072090789600395) " xml:space="preserve" text-anchor="start" font-family="Oswald, sans-serif" font-size="4" id="svg_17" y="130.69121" x="86.18391" fill-opacity="null" stroke-opacity="null" stroke-width="0" fill="#000000">Николаевский</text>
  <text pointer-events="none" stroke="null" transform="rotate(-0.6653972268104553 89.94017028808396,124.7048034667977) matrix(0.8421172514777598,0,0,1.0061278972467156,-20.161317992191393,-7.1072090789600395) " xml:space="preserve" text-anchor="start" font-family="Oswald, sans-serif" font-size="4" id="svg_18" y="132.39505" x="117.73702" fill-opacity="null" stroke-opacity="null" stroke-width="0" fill="#000000">Новоспасский</text>
  <text pointer-events="none" stroke="null" transform="matrix(0.8022956119511759,0,0,0.9823973296743779,-16.002973083689685,-4.673466660274268) " xml:space="preserve" text-anchor="start" font-family="Oswald, sans-serif" font-size="4" id="svg_19" y="103.11829" x="110.13565" fill-opacity="null" stroke-opacity="null" stroke-width="0" fill="#000000">Кузоватовский</text>
  <text pointer-events="none" stroke="null" transform="rotate(0.4462513029575348 106.77102661132709,85.35060882568328) matrix(0.8051900547065453,0,0,1.0061278972467156,-13.681185239952576,-7.1072090789600395) " xml:space="preserve" text-anchor="start" font-family="Oswald, sans-serif" font-size="4" id="svg_20" y="93.30569" x="136.04583" fill-opacity="null" stroke-opacity="null" stroke-width="0" fill="#000000">Теренгульский</text>
  <text pointer-events="none" stroke="null" transform="matrix(0.8303628305467393,0,0,1.0353761354028734,11.88175559210428,1.5888981755187128) " xml:space="preserve" text-anchor="start" font-family="Oswald, sans-serif" font-size="4" id="svg_21" y="90.97535" x="43.33058" fill-opacity="null" stroke-opacity="null" stroke-width="0" fill="#000000">Барышский</text>
  <text pointer-events="none" stroke="null" transform="rotate(-46.53276443481445 40.04103469848634,87.64983367919922) matrix(0.6726960237867412,0,0,1.1841653252307602,19.776090479759294,-8.872840012594935) " xml:space="preserve" text-anchor="start" font-family="Oswald, sans-serif" font-size="4" id="svg_22" y="82.84626" x="11.99909" fill-opacity="null" stroke-opacity="null" stroke-width="0" fill="#000000">Базарносызганский</text>
  <text pointer-events="none" stroke="null" transform="rotate(5.684500217437744 26.115526199340362,68.28514099121095) matrix(0.8255848203661238,0,0,1.1657560650339953,19.35445073690752,-5.295474784518411) " xml:space="preserve" text-anchor="start" font-family="Oswald, sans-serif" font-size="4" id="svg_23" y="64.53266" x="-1.5867" fill-opacity="null" stroke-opacity="null" stroke-width="0" fill="#000000">Инзенский</text>
  <text pointer-events="none" stroke="null" transform="matrix(0.8255848203661238,0,0,1.1657560650339953,19.35445073690752,-5.295474784518411) " xml:space="preserve" text-anchor="start" font-family="Oswald, sans-serif" font-size="4" id="svg_24" y="59.87596" x="32.32865" fill-opacity="null" stroke-opacity="null" stroke-width="0" fill="#000000">Вешкаймский</text>
  <text pointer-events="none" stroke="null" transform="matrix(0.8255848203661238,0,0,1.1657560650339953,19.35445073690752,-5.295474784518411) " xml:space="preserve" text-anchor="start" font-family="Oswald, sans-serif" font-size="4" id="svg_25" y="44.92552" x="25.40715" fill-opacity="null" stroke-opacity="null" stroke-width="0" fill="#000000">Карсунский</text>
  <text pointer-events="none" stroke="null" transform="matrix(0.8255848203661238,0,0,1.1657560650339953,19.35445073690752,-5.295474784518411) " xml:space="preserve" text-anchor="start" font-family="Oswald, sans-serif" font-size="4" id="svg_26" y="26.29874" x="29.21397" fill-opacity="null" stroke-opacity="null" stroke-width="0" fill="#000000">Сурский</text>
  <text pointer-events="none" stroke="null" transform="matrix(0.8255848203661238,0,0,1.1657560650339953,19.35445073690752,-5.295474784518411) " xml:space="preserve" text-anchor="start" font-family="Oswald, sans-serif" font-size="4" id="svg_27" y="24.58312" x="76.62624" fill-opacity="null" stroke-opacity="null" stroke-width="0" fill="#000000">Цильнинский</text>
  <text pointer-events="none" stroke="null" transform="matrix(0.8255848203661238,0,0,1.1657560650339953,19.35445073690752,-5.295474784518411) " xml:space="preserve" text-anchor="start" font-family="Oswald, sans-serif" font-size="4" id="svg_28" y="20.4166" x="143.41869" fill-opacity="null" stroke-opacity="null" stroke-width="0" fill="#000000">Старомайнский</text>
  <text pointer-events="none" stroke="null" transform="matrix(0.8443352011672453,0,0,1.1657560650339953,17.048148727244158,-5.295474784518411) " xml:space="preserve" text-anchor="start" font-family="Oswald, sans-serif" font-size="4" id="svg_29" y="39.28847" x="124.0385" fill-opacity="null" stroke-opacity="null" stroke-width="0" fill="#000000">Чердаклинский</text>
  <text pointer-events="none" stroke="null" transform="matrix(0.9231037480047739,0,0,1.1657560650339953,4.490943236918156,-5.295474784518411) " xml:space="preserve" text-anchor="start" font-family="Oswald, sans-serif" font-size="4" id="svg_30" y="45.90588" x="153.45487" fill-opacity="null" stroke-opacity="null" stroke-width="0" fill="#000000">Мелекесский</text>
  <text pointer-events="none" stroke="null" transform="rotate(41.2669792175293 181.21452331542972,50.94507598876951) matrix(0.749155729797116,0,0,1.2097548045018833,29.94381343156435,0.42065505105597367) " xml:space="preserve" text-anchor="start" font-family="Oswald, sans-serif" font-size="4" id="svg_31" y="43.184" x="183.71433" fill-opacity="null" stroke-opacity="null" stroke-width="0" fill="#000000">Новомалыклинский</text>
  <text pointer-events="none" stroke="null" transform="rotate(0.4462513029575348 124.5960540771491,68.49346923828205) matrix(0.8051900547065453,0,0,1.0061278972467156,-13.681185239952576,-7.1072090789600395) " xml:space="preserve" text-anchor="start" font-family="Oswald, sans-serif" font-size="4" id="svg_32" y="76.55122" x="157.69112" fill-opacity="null" stroke-opacity="null" stroke-width="0" fill="#000000">Сенгилеевский</text>
  <text pointer-events="none" stroke="null" transform="rotate(32 104.7602615356445,51.154785156250014) matrix(0.8443352011672453,0,0,1.1657560650339953,17.048148727244158,-5.295474784518411) " xml:space="preserve" text-anchor="start" font-family="Oswald, sans-serif" font-size="4" id="svg_33" y="49.8273" x="92.22988" fill-opacity="null" stroke-opacity="null" stroke-width="0" fill="#000000">Ульяновский</text>

</svg>
