<?xml version="1.0" encoding="UTF-8" standalone="no"?>
<!-- Created with Inkscape (http://www.inkscape.org/) -->

<svg
   xmlns:dc="http://purl.org/dc/elements/1.1/"
   xmlns:cc="http://creativecommons.org/ns#"
   xmlns:rdf="http://www.w3.org/1999/02/22-rdf-syntax-ns#"
   xmlns:svg="http://www.w3.org/2000/svg"
   xmlns="http://www.w3.org/2000/svg"
   xmlns:sodipodi="http://sodipodi.sourceforge.net/DTD/sodipodi-0.dtd"
   xmlns:inkscape="http://www.inkscape.org/namespaces/inkscape"
   id="svg2"
   height="3342.3"
   width="3501.4"
   version="1.1"
   inkscape:version="0.48.2 r9819"
   sodipodi:docname="Outline map of Ulyanovsk_Oblast.svg">
  <defs
     id="defs44" />
  <sodipodi:namedview
     pagecolor="#ffffff"
     bordercolor="#666666"
     borderopacity="1"
     objecttolerance="10"
     gridtolerance="10"
     guidetolerance="10"
     inkscape:pageopacity="0"
     inkscape:pageshadow="2"
     inkscape:window-width="1218"
     inkscape:window-height="779"
     id="namedview42"
     showgrid="false"
     inkscape:zoom="0.18490261"
     inkscape:cx="1750.7"
     inkscape:cy="1671.15"
     inkscape:window-x="-6"
     inkscape:window-y="-6"
     inkscape:window-maximized="1"
     inkscape:current-layer="svg2" />
  <metadata
     id="metadata7">
    <rdf:RDF>
      <cc:Work
         rdf:about="">
        <dc:format>image/svg+xml</dc:format>
        <dc:type
           rdf:resource="http://purl.org/dc/dcmitype/StillImage" />
        <dc:title />
      </cc:Work>
    </rdf:RDF>
  </metadata>
  <rect
     style="fill:#f5f5f5;fill-opacity:1;stroke:none;display:inline"
     id="rect3890-1"
     width="3501.4355"
     height="3342.3447"
     x="-0.017822266"
     y="-0.022338867" />
  <g
     id="layer1"
     transform="translate(832.58319,1066.1449)">
    <rect
       id="rect3890"
       display="none"
       height="3342.3"
       width="3501.3999"
       y="-1066.1"
       x="-832.58002"
       style="fill:#f5f5f5" />
    <path
       id="path3765"
       d="m698.26-589.28,75.114-20.988,2.4854-8.2847-4.4184-16.017-19.607-19.055-2.4854-21.264,4.6947-2.2092,10.77-0.82846,8.2847-6.6277-1.9331-22.645,5.247-4.6946,21.264,23.473,28.72-18.226,17.95-15.465,9.3893,16.293,2.2092,11.046,4.4185,1.9331,33.691-23.197-13.255-46.394-3.8662-10.494,11.875-3.8662,13.532-0.82846-2.4854,26.235,9.9416,8.837,26.787,8.837,24.578,1.1046,10.77-6.0754,7.18-6.6277,7.18,1.1046,4.6947,9.3893,24.854,0.27616,9.3893-9.3893,16.846-4.4185-13.808,11.599-10.218,19.331-18.502-3.0377,11.598,25.406,41.699,37.557,12.703-15.741,17.398-40.595,26.235,12.703-5.247,24.025,19.331,8.837,14.912,0,24.578,14.084,41.423,35.348,318.13-39.49-24.026-220.37,57.992-11.875,32.034-0.27616,16.846,6.0754-6.0754-30.101,14.084,0.27615,19.607,21.54,11.046-9.3893,8.2847,14.636,31.206-18.226,0-22.921,9.2524-37.307,17.379-16.598,14.841-1.9527,12.107,9.5683,15.817,3.1243,14.06-7.6156,9.1777-15.036,8.9825-6.4439-27.533-26.557,6.444-4.8818,22.847-10.545,6.444,0.5858,25.385,28.9,15.622,9.1778,21.285,25.385,33.391,0.1953,2.148,5.2723-21.089,0.9764,4.4913,9.1777,13.864,10.349,16.208,6.8345,39.054,28.51,9.373,25.385,11.521,19.722,3.1243,21.48,23.823,9.5683,2.9291,4.6865-26.752,19.722,2.148,23.433,8.9825-1.1716,24.409-5.6629,4.4912,4.4912-1.9527,6.6392,5.6629,13.474,10.545,5.077,1.3669,6.6392-6.6392,6.2487-6.0534,20.308,7.4203,28.705,29.681,5.4676,4.1007,8.7872,2.5385,18.941-10.349,18.941-3.7101,27.533,59.167-8.0061,23.628-17.574,23.042,1.5622,58.581-8.2014,18.802,11.568,13.214,0,7.1429-2.1429,22.857,23.571,12.322,8.3929,63.214-5.7143,15.536,6.6072,5.7142,31.429,14.286,7.5,16.964-30.179,13.929,5.1786,6.4286,0,4.2857,3.0357,23.036-4.6428,32.143-0.35715,1.25,4.8214-4.8215,1.4286,1.4286,10.536,13.036-1.0714,6.6072,91.429,39.643-0.53571,3.0357,61.607,6.0715,3.3929,7.5,0.17857,2.8571,7.5,4.2857,4.8214,10.893-11.071,0.8928,5,10.179,1.6071-5.3571,5.5357,30,49.107,15.714,31.25,3.75,13.571-25.357,12.857,33.036,61.071,3.5715,11.429-4.1072,7.1429-3.3928-0.71429,1.7857,5.8929-6.25,5.8928,3.9285,1.0714,1.6072,3.2143-4.1072,2.8571,3.0358,4.2857-3.2143,1.25,1.25,3.2143-5.1786,5.3571,2.6786,10.536-2.3215,6.0714-6.4285,6.25,1.7857,2.5-4.4643,6.9643,5.3571,4.6429-4.2857,5.8929,1.9643,2.3214-1.4286,15-4.8214,5.8928,5.8929,11.964,0.1785,11.964,3.2143,3.2143,4.1072,4.4643-5.3572,3.75,10.893,8.5714,1.0714,14.643-4.1071,5.5357,5.5357,4.8214,0,4.8214,3.75,0.17857,2.3214,14.107,10.893,5.8929-26.607,70.179-8.75-4.8214-17.143,1.4286-26.25,11.786,0.8928,23.929-24.107-3.9286-14.286,41.429,3.5714,10-29.643-0.35715,6.0715-6.6071-15.893-3.9286-2.5,11.607-24.107-6.25-26.607,111.25,2.5,13.571,87.679,1.4286,3.3929,23.036,10.536,12.5-5,3.3928-0.5357,40.714-6.25,4.1071-142.14-2.8571-15.893-10-5-14.643,6.9643-11.607-20.893-36.429-34.286,13.929-27.143,16.071-3.9286,6.6071,8.3929,9.6429-8.3929,12.857,2.3215,5.8929-1.25,8.75-15.893,8.5714,0.3571,7.6786-32.321-2.6786-18.214,1.7857-6.9643,17.321-16.25,28.036-9.8214-0.89285,1.6072-23.036-8.75-0.35714,4.6428-23.75-129.29-6.0714-8.9286-8.3929-88.75-2.6786-2.8571,55.893-39.464-2.6786-23.571-27.5-6.6072-1.9643,0-7.6786-7.8571-0.17857-10.179-6.7857-63.75,12.5-30.386,2.7045-55.686,5.867,11.429,106.07,15.893,105.36-44.286,8.2143-75,7.1429-7.1429,6.0714-10-3.3929-1.0714-8.75-7.1428-1.7857-24.107-11.964-5.8928,5.3571-2.3215-8.3929-9.4643-1.9643-11.607,4.8214-2.1429-7.1429-22.857,7.5-3.2143-6.0714-32.679,12.679,3.2143,8.2143-2.3214,2.6786,3.9286,9.2857,0,4.1072-15,6.25-1.6072-8.75-9.4643-15.179-2.8571,2.3214-6.6071-2.8571-0.5358,13.393-21.071-4.1071-0.1786-4.8214-3.75-0.17857-3.9285,4.2857-20-13.036-9.8215-0.35715,0.8929-5.8928-9.1071-0.71429,0-9.4643-26.786-30.179-4.4642,4.1072,9.8214,14.643-29.107-6.4286-0.3571-3.5714-12.679-2.3214-8.2143,11.964,4.4643,4.2857-1.0714,7.8572,8.5714,7.3214-5.8928,8.9286,11.25,6.6071,21.071-4.2857,2.8571,3.3928-6.6071,7.5,5.1786,6.9643,0.3571,5.8929-9.6428,3.2143,3.0357,5.1786-1.7857,18.036-3.0358,6.25,3.2143,9.4643,11.786,1.9643,1.6072,2.8571-0.7143,7.6786-5,7.6786,15.893,3.2143-0.7143,2.8571-7.6786,11.25,0,11.25-12.321,1.4286-3.3929-3.75-13.214,9.8214-13.214-4.4643-10.357,3.3928-5.5357-9.2857-7.1429,1.7857-11.786-1.4286,0.5357,12.679-13.571,0.35715,0.3571,3.2143,11.429,11.964,6.7857-1.9643,0.1786,20.536-8.5714-8.0357-4.1072,1.6072-8.5714-11.607,3.0357-3.5714-6.25-6.25-3.9286-5.3571-2.6785,4.6429-12.857,4.4643-14.821-10.714,0.3571,62.857,4.4643,10,0,4.4643,9.8215,1.9643,19.643,8.75,10,0.35715,5.1786,20.357,6.4286-3.5714,16.428,0.35714,8.0357-1.7857,1.25,6.6071,9.8215,0.17857,4.6428-8.3928,2.8572,0.17857,0,7.3214,8.2143,5.1786-6.0715,5.8929,0.7143,6.0714-4.8214,4.4643-26.429-16.607-7.5-0.17857-1.6071,6.4286-8.0357-0.53572-1.7858,20-10.893-0.53571-8.3929,24.107,4.2857,10.536,0.5358,46.429,3.75,1.9643-0.8929,11.429-14.643,9.2857-15.536-4.8214-7.6785,4.8214-15.714-2.6786-10.893,21.071-4.2857,0-3.9286-6.25-5.1785-0.35715-4.8215-6.4286,1.25-3.75-4.1071-2.5-6.6072,7.3214-1.6071,10-3.75,3.2143,3.2143-20.179-6.0714-4.1071,3.75-2.8571-2.5-3.9286-7.5,3.9286-4.1072-10-21.429-1.0714-13.571,14.286-3.5714-2.1428-5.5357,5.8928-0.8929,11.607,7.3214,2.6786,0.1786,3.9286-7.1428-1.9643-7.6786-3.9286-8.2143,6.25-8.2143,0-2.6786-3.9286,3.3929-2.3214,0.5357-16.786-8.75-4.6429-10.179,6.0714-2.3214,9.8214-2.6786,1.25l-10.8-10.17h-6.6071l-13.572,14.464-17.321,8.2143-12.5-0.35714-3.75,9.2857,2.1429,6.0714-6.7858,6.0714,0.5358,9.4643,3.5714,5,15.357-0.53571,3.2143,2.6786-15.714,29.107-9.1071-17.143-18.214,20.536,7.5,25.536-8.5714,7.3214-8.0357,2.8571-1.0714,15.893-5.5357,4.6428h-6.4286l-1.25,10.536-11.071,6.6071-5.8928,11.071,8.9286-0.5357,6.0714,14.286,7.5,7.1429-8.0357,7.3214,19.643,9.4643,7.3214-6.9643,3.5714,5.1786,11.786,4.8215-1.25,12.143,38.214,24.464-0.3572,6.4285-6.6071,5.8929,2.1428,5.7143,6.7857,0.8928,15.893,18.214,12.5,1.25,6.7857-1.7857,6.25-6.9643,3.9286,3.0357,6.25,11.429-0.1786,8.2143,15.536,2.5,13.929,0.5357,23.571,22.5-37.678,40.357,1.7857,23.75-0.8929,7.8572,20,4.2857,22.143,10,10.893,11.25,3.3929,17.5,9.1071-1.7857,27.5,10-14.464,30.893-21.428,21.25-7.8572,30.357-20.357,35.714,11.964,0.3571,12.857,15.536,4.1072-3.3928,16.071,12.857,5.1786-11.25,17.678,7.8572-3.75,28.036,23.036,3.2143,10.893-81.786,61.071-11.25-3.9285,10.714,36.25,5.3572v20.357l-8.2143,26.429-15.536,33.214,16.964,6.0714,3.2143-7.6786,10.357-0.7143,8.2143,7.1429-11.072,19.107v12.143l5.7143,12.679,23.929-12.5,39.286-13.393,9.6429,25.536,41.25,10.357,5.3571-4.8215,1.6071-8.2142,5.3572-4.1072,67.679,72.679,0.5357,20.893-3.2143,11.786-38.214,45.178-33.75,20.357-46.786,17.857-21.429,0.1786-24.286,12.5-6.7857,24.107-9.4643,6.25-31.071,11.607-18.036-13.75-13.036-17.679-21.071-6.25-14.107,4.1071-18.393,59.643-58.75-25.357-36.786,1.9642-9.1071,25.179,0.8928,13.571-18.571-1.4285-18.571,7.5-18.75,16.428-11.786-0.5357,3.0358,31.786,37.678,1.9643,10.536,2.1429,32.5-2.6786,9.6429,0.7143-30.893,50.893-7.6785,7.1428-33.929,22.5-18.393,2.3214-25.714,18.75-10.357-5.1785-3.2143-18.572-9.4643-2.1428-5.5357-5-1.6071-34.107-8.9286-18.036-15.893-8.75-39.464-8.9285-22.679,1.0714-2.5,16.25,1.0714,26.786,10.179,11.607-4.1071,8.9286-11.964,1.7857-9.1071,11.786-16.429,2.1429-8.9286,10,3.0357,23.75,10,7.3214-7.8571,30.179,7.3214,8.3929-3.2143,2.8571,6.0714,7.1429,5.3571,11.071-1.9643,20.714-7.8572,6.0714-7.5-0.3571-7.8571,5.1785-10,5-10.357-1.7857-8.75-13.036-10.536-11.786-21.786,8.75-5.1786-3.3929-3.0357-8.9285-29.821-6.0715-15.357,5.8929-35.536-0.8929-19.643-3.75-7.5,0.3572-11.25-5.7143-7.3214-1.25,0.17857,15h-3.5714l0.17857,5.7143,8.9286,6.0714-0.17858,5.8929,5.5357,1.7857,4.2857-3.3929,5.7143,1.6072,8.0357-0.7143,5,2.6785-6.25,6.9643h-5.5357l-1.9643-2.1428-3.2143,3.2143-3.9286-1.6072-52.143,39.821-13.571,5.7143-21.786-10.893-40.357,4.2857-53.393,18.393-10.179,6.7858-9.8214-0.3572-19.821-16.429-13.214,13.572-22.321,2.6785-14.821,3.3929-4.8214-0.5357-1.9643-3.9286,1.25-10.357,24.286-20.179-10.536-17.679-14.286,18.393-20,6.4286-40.893,0.1785-7.8571-1.0714-8.2143,11.964v46.786l-5.3571,5.3571-4.4643-1.0714-3.3929-6.25,2.5-14.286,1.6072-20.357-9.2857-15.714-10.179-5.7143-14.464,6.7857-5.1786-6.7857-0.89285-10.536-3.0357-12.322-16.607-40.536-9.8214-0.5357-16.429,3.9286-11.429,2.5-12.857,13.393-18.571,9.6429-32.321,6.25-13.929,1.7857,0.71428,14.821-11.786,6.25-28.571-21.964,4.6429-6.4286,0.17857-17.857-4.6429-12.321,8.3929-32.5,7.5-13.393,1.0714-23.929,23.393,3.5714,14.286-5.1786,3.2143-17.143,43.214-17.321,11.607-9.8215-10.179-27.678,7.1429-4.2858,5.3571-0.5357,15.714-14.107,1.25-11.607-6.25-24.643,2.8571-28.214,6.25-8.2143v-17.857l-1.6071-1.7857-15.179,10.536-10.536-0.1786-13.75-8.5714-8.5714-16.429-6.0714-25.536-4.4643-2.6786-3.75-5-2.6786-11.964-5.1786-7.5-1.25-6.9643,2.6786-14.464,5.3571-13.036,10.179-7.3214,2.1429-11.786-9.6429,0.5357-4.1071-2.6786-1.25-21.964,3.5714-28.036,2.8571-3.9285-5.3571-12.322-10.179,2.1429,2.8571-25.893,6.25-3.3928-1.6071-95.536-2.8572-22.322-13.214-0.1785-4.8214-4.8215,14.286-5.8928,14.821-3.2143,18.929-31.25-11.964-20.893-9.1072-6.0714-6.6071-13.929-2.1429-9.4642,2.5-8.0358,5.1786-5-10.179-15-2.6786,5.3572-3.5714,2.6786-5.8928-0.7143-36.429,6.7857-15.357-19.107,0.71429-17.857,10.714-24.107-8.2143-34.107,7.6786-10.357,12.857-3.5715,6.0714-5,10,2.1429,10.893,10.357,5.7143-10.893-2.8571-8.0357,0.53572-25.179-7.3214-7.6786-16.429-0.1785-1.9643,8.3928-6.9643,0.1786-2.8571-5.1786-3.2143-34.464,1.25-23.571-4.2857-15.179-5.5357-7.5-27.143-1.6071-3.3929-8.0357-13.036-9.6429-4.1071-11.607-13.214-0.8929-0.17857-15.536-16.964-0.7143-10.357-9.4643-13.571-16.786-16.25-4.1071-25.893,0.1785-6.0714,1.7858-2.3214-3.0358,3.5714-6.0714,0.89286-18.571-11.607-6.6072-15.893,9.1072-10-8.5714-7.8571-10.357,17.143-34.643,0.89286-8.5715-3.75-10.893-9.8214,1.0714-5.7143,6.25-26.607,7.1429-10.536,8.0357-1.0714,6.6071-9.2857,7.5-10.357-15.714-12.679,8.3929-4.8214-7.5-4.1072-0.1786-6.6071-18.75-9.1071-3.75-6.9643,9.2857,2.1429,14.286-4.1071,6.7858-7.1429-7.5,2.3214-11.786-2.5-6.6071-11.964-3.5714-11.607-13.75-28.393-10.179-8.9286-9.6429-2.8571-16.25,1.9643-71.964-5.5357-29.643,1.6071-2.6786,13.214,1.6071,3.9286-5.7143-0.17857-6.0714,4.4643-5-25.179-24.464-2.6786-6.0714,2.5-1.7857-3.2143-4.1072,2.8572-7.3214-2.8572-3.9286-10.893,15.179-1.4286-8.3928-30.536-17.857-10.714,0.89286-16.25-20.536-11.964-20.714-1.4286-4.1071-6.7857-3.5714-2.8571-10,1.4286-7.1429-5.8928-8.0357,2.5-13.214-10-2.5,3.9286-7.5,0.17857-6.6071-5.3571-3.75-4.1072,2.3214v-5.8929l-13.214-9.8214-13.929,14.643-5.8929,11.071-3.5714-0.35715-13.036-8.9286-3.2143-5.8928-4.2857-1.6072,3.5714-10.536,1.4286-9.6429,12.321-10.357,10-1.0714,1.4286-9.4643-6.0714-6.6071-6.7857,2.5-3.9286-4.1071-11.964,4.1071-5,3.0357,6.0714-8.2143-4.8214-3.2143-10.714,1.6072-0.17857,6.0714-5.5357,6.7857-2.8571-6.9643,11.786-12.321-8.75,2.3214-10,7.1429-10.179-8.0357-7.5,7.1428-2.6786-1.9643h-13.214l-1.7857-7.6786-3.75-2.6786-3.0357,2.8571-1.25-3.75-10.893,11.964-4.8214-1.0714,24.643-28.571-4.4643-20.714,1.4286-27.321,3.2143-16.964,6.9643-17.321,7.8571-8.3929,16.429,9.4643,1.7857-4.4643-8.75-6.4286-20.893-4.8214-0.71429-6.0714-2.8571-0.53571-0.89286-5.1786,2.5-2.3214v-3.3929l-6.0714,3.0357,2.1429-8.5714,3.5714-4.4643-10.536-4.2857-5.7143,2.5-1.0714-11.071-14.643-3.3929,0.35715-6.25-5.8929-5-7.5,1.6071-5.5357-3.75,0.71429,8.0357,3.5714,4.6429v6.4286l-8.3929-0.17857-3.5714-7.5,3.9286-7.3214-9.2857-0.35715-5.8929,3.2143-2.6786-3.5714,6.4286-3.3929-3.5714-6.6071,3.5714-5.3571-1.9643-3.5714-4.4643-2.6786-0.53571-4.2857-5.3572,0.35715-5.8928-6.4286,0.71428-14.464-5.7143-8.0357-7.8572,5.1786,3.0357,5.5357-3.3929,3.0357-9.4643-7.3214,1.9643-4.4643-1.6071-1.6071-9.1071,8.9286-6.0714-6.4286-8.2143,0.35714-0.71428-10-11.964,3.75-10.179-0.53571,0.17857-3.0357-7.8571-1.9643-0.89286,6.6071-10.179-1.9643v-6.4286l7.5-0.35714v-4.4643l-4.1071-3.2143-12.679,7.8571-6.0714-7.3214,3.5714-9.4643h6.4286l0.71428-23.214-8.3929,2.8571-5.5357-7.8571,2.6786-7.3214-6.0714-0.35714-8.5714,8.9286,2.5,13.75,3.2143,7.3214-2.6786,0.53571-5-6.25-3.0357,1.0714v15.536h-5.5357l2.3214-13.214-6.0714,8.75h-25.536l0.89285,11.071,10.536,13.75,0.71428,5.7143-5,3.2143-3.5714-3.75-8.75,3.75-6.9643-0.53571-0.35714-11.786-5.7143-4.4643-7.1429,1.7857-3.3928,7.1429-1.25,13.036-6.9643,0.71429-6.7857,6.7857,0.35714,9.6429-10.179-0.89286-0.35715-8.5714-10-11.25-6.25-3.5714,0.89286-6.4286,5.1786-11.071,3.2143,0.35714,4.8214,4.6429,21.786-1.7857,14.464-7.5,8.5714-5,5.3571-14.464,8.9286-8.2143,2.3214-8.2143,3.0357-18.214,3.2143-7.5-1.0714-6.4286-11.429-8.0357-3.5714-5.8928,2.8571-6.9643,6.25-1.9643,3.9286,0.35715,8.9286-9.6429,9.1071-6.9643,0.89286-9.2857,9.2857-14.643,8.9286-2.3214,3.2143-3.2143,0.53571-25-3.0357-5.7143,0.89285-4.4643,5.1786-3.9286v-5.1786l-5.3572-7.6786v-4.1071l-3.3928-3.9286-4.2857-4.6429,1.4286-5.1786,5.7143-4.2857,3.3929,2.3214,0.53571,3.5714-2.3214,4.8214-0.35714,2.5,5.7143,6.7857,0.89286-8.2143,12.143-12.857h3.5714l8.0357,5.8928,0.17857,2.6786-3.2143,1.9643,1.4286,1.7857,4.1071-1.0714,3.9286,3.9286-6.6071,6.7857-10,3.2143,5.5357,2.8571,6.4286-4.2857,8.9286,5,10.179-0.17857,4.2857-6.4286,13.75-39.821,0.89286-6.6072,7.3214-2.5,3.5714,2.3214,3.5714-1.7857-3.3929-4.8214,0.35714-3.3929,5.1786-0.89286,1.7857,2.8572-0.53572,5h4.1072l12.321,9.1071,5.3572-5.3571,1.0714-5.3572,5.1786-4.2857,0.89285-4.6429,4.4643-0.17857,3.9286,6.6071-0.17857,9.1072,13.036,4.1071,8.9286,9.6429,23.929-20.714,0.89286-13.75,6.4286-5.3571,6.25,1.7857,0.17857-8.2143,5,2.6786,15-8.75,5,3.2143,3.5714,11.607,4.1071,6.4286,6.9643-1.25,2.3214-8.0357,6.6072-6.25h10.893l-1.25-13.393,4.6429-3.5714,5-0.89286,5-8.3929,3.0357,2.1429,8.2143-10.536,5.3571-0.71428,2.8572,4.2857-3.5714,6.25-9.2857,4.8214,1.6072,5,10,5.3571,9.2857-3.75,6.9643-4.1071,1.0714-8.3929,3.2143-2.1429h3.3929l3.75,4.1071,0.89286-9.4643,6.4286-5h3.75l5.1786-2.1429,6.6071,1.7857,6.9643-5.1786-0.35715-9.4643-3.75-3.5714-7.3214-1.25-1.7857-13.75,5.8929-6.9643,0.35714-6.0714,8.75-0.71428,10.714-8.9286-3.3929-6.0714,3.75-6.4286,7.1429-5,2.6786-4.8214,0.53571-6.25,4.6429-1.7857-0.89286,8.9286,5,8.5714,11.071-5.3571,9.6429,11.25,10.179-9.6429-6.6071-4.6429-2.8572-9.2857,3.3929-3.5714,6.0714,1.4286h13.393l2.8571,7.5,27.857,0.53571,6.25-5.1786-7.1428-10.357,4.2857-6.6071,30.714-12.5,36.964-9.1071,17.857,7.3214,16.25-26.964,7.1429-21.071-11.786-7.8571,13.75-31.607,12.143-37.679-18.929,4.8214-9.4643-0.71428-23.929-23.036-22.143-0.53571-16.25-9.1071-18.571,7.6786-15.893-1.0714-19.464,3.2143-9.8214-3.5714-5.3571-8.75-5.7143-18.036-18.75-13.571,0.53571-7.6786-3.9286-2.3214-12.857-1.0714-3.75-5,3.0357-6.25,19.107,0.53571,9.1071-6.25-10.357-8.75-10.893,1.25,18.036-8.3929,10.893,6.0714,10.357-2.3214,7.6786-10.536-8.3929-8.0357v-3.2143l24.821-10,4.8214-0.17857,6.9643-3.2143,6.0714,1.7857,2.1429-3.3929-5.1786-3.3929-5.3572,0.17857-3.3928,1.25-3.3929-2.3214v-2.6786l4.4643-4.1071-0.71428-3.2143-5.1786-5.5357-5.5357,5.1786-0.89285,9.6429-3.2143,1.7857,0.71429,3.2143-6.9643,1.4286-14.821,7.8571-6.9643-1.6071-19.643,10-14.821,3.5714-5.7143-14.464h-10.536l-1.25-2.6786,59.464-40.179-0.89286-22.143,2.8571-5.3571-0.17857-16.607,3.0357-4.8214-6.0714-8.9286-19.464,11.071-13.393-11.25,3.2143-4.8214,9.8214-4.4643,10.536-1.6071,8.5714-5.7143-7.6786-11.786-5-7.8571-6.25-0.17858-3.2143,3.3929-3.5714,0.35714-11.25,11.25-5.8928-0.17857-5.1786,2.5-10.714,0.89286-5.8929-3.75-13.214,17.143h-5.3572l-6.7857,9.1071-6.0714-6.4286,4.1071-5.5357-3.5714-9.6428-5.5357,1.0714-4.2857,2.5-2.8572-3.2143,4.8214-3.2143,12.143-1.25,2.8571-11.786,53.571-45.536,13.214-1.4286,6.7857-13.214-9.6429-10.179-5.1786-14.286-16.25-5.7143,2.1429-8.3929-27.143-13.036-15.714-12.143,3.3928-4.1071-7.8571-10,7.3214-7.3214,0.89286-19.107,13.036-15.357-22.857-11.429-7.5-2.3214-0.89286-20.893,7.1429-9.4643,39.643-1.6072,1.6071,10.893,7.1429,6.0714,21.071,12.321,18.929,6.25,0.53571,5-4.6429,3.75,36.786,13.393,2.5,6.4286,22.5,11.25,15.179,13.393,16.964,5,14.464,0.35714,16.25-12.321h17.321l12.321,7.3214,2.6786-2.5,10.893,6.25,0.53571,5,2.5,1.7857,7.6786-1.25,20.714,23.929,4.8214,19.464,4.8214,3.3929,18.393,3.9286,25.536-13.571,5.7143-7.5-0.53572-12.321,3.3929-1.7857,13.036,18.393,25.536-33.036,8.75-21.607,19.107-1.4286,17.679-11.429,26.429-2.3214,5.1786-26.25,22.321-1.4286,9.1071,4.6429,30.714,40.357,18.036,8.9286,10-9.2857,5.8929,0.17857,3.3929,16.964,16.607,5.7143,6.7857-3.9286-4.4643-18.214,10,7.6786,15.357,5,15.357,0.89286,6.6072-8.0357,4.4643-7.5,10.357,0.17857,5.1786-5.7143,3.0357-8.3929,15.357-1.6071,10,3.3928,15.357,0.71429,4.1071,7.1429-3.75,6.25,2.1429,4.6428,17.321,30.536,5.5357,6.6071-1.25,6.4286-6.4286,0.35715-6.9643,5.8928,2.5,24.464,15,31.429,13.393,26.429,20,58.929,11.25,24.107,14.821-5.8929,4.4643-8.9286-17.857-33.393,1.6071-7.1429,22.143-15.179-2.6786-12.5,0.35714-5.5357,14.821-7.6786,12.143,5.8928,8.9286-8.0357,4.1071,2.1429,1.7857,4.8214-1.7857,5,19.643,18.036,21.429,9.4643,22.5-2.5,13.036-4.1071,5.3571-7.8571,32.143-65.893-4.6429-12.143-20.179-24.821,6.9643-7.8572,23.214-11.786,30.893-45.179-24.107-23.214,18.571-28.571,10.536-23.393-12.321-13.929,65.536-16.607,20.893,0.53571,6.25,8.5714,5.7143,33.036,3.3929,14.821-23.036,0.35714-15.536,7.1429-1.6071,5.3571,8.0357,20.714z"
       stroke="#646464"
       stroke-dasharray="none"
       stroke-miterlimit="4"
       stroke-width="10"
       fill="#fefee9" />
    <path
       id="path3814"
       d="m2593.9,1442.6-334.36-290.9,8.5651-8.0297-160.34-149.15"
       transform="translate(-872.71429,-1107.7092)"
       stroke="#646464"
       stroke-dasharray="none"
       stroke-miterlimit="4"
       stroke-width="6"
       fill="none" />
    <path
       id="path3820"
       d="m2259.6,1151.7-15.261,7.7991-7.3791,17.394-11.596-4.2166-8.4333,16.34,4.7438,23.192-4.2167,26.881-10.014,3.1625,1.5812-17.921-15.285,3.6896-18.975-10.542-32.679-7.9062,6.325-11.069-16.34-4.7437-31.098,24.773"
       transform="translate(-872.71429,-1107.7092)"
       stroke="#646464"
       stroke-dasharray="none"
       stroke-miterlimit="4"
       stroke-width="6"
       fill="none" />
    <path
       id="path3822"
       d="m2094.6,780.04-27.408-299.38"
       transform="translate(-872.71429,-1107.7092)"
       stroke="#646464"
       stroke-dasharray="none"
       stroke-miterlimit="4"
       stroke-width="6"
       fill="none" />
    <path
       id="path3826"
       d="m1599.2,1629.7,12.65-7.3791,4.7437,6.852,3.6895-5.2708,8.9604-2.1083-5.2708-9.4874,7.3791-8.9604,0.5271-10.542-5.7979-10.014-1.5812-15.812,5.2708-20.029-5.2708-22.664-7.9062-14.758,6.852-6.325-2.1083-6.325,7.9062-2.6354,5.2708,5.7979,10.014-8.4333,2.1084-9.4874-3.6896-7.3791-5.7979-4.7438,3.1625-5.2708,10.014,5.2708,0-8.9603,13.704-8.9604,3.6896,2.6354-4.7437,9.4875,3.6895,4.2166,9.4875-4.2166,8.4333,3.1624,14.231-17.394,27.935-15.812,13.704-4.7438,7.3791-8.9603,12.123-29.516-3.6896-15.812-24.246-14.231,18.448-32.152,29.516,11.596,49.546-26.881,18.975,10.015-26.354,37.423,39.004,28.989,2.6354,8.9604-8.4333,3.6895-6.3249-2.6354-5.7979,10.015,3.6895,8.4333-1.5812,8.9603,11.596,6.325,8.4333,0-10.015,28.989-18.448-13.704-12.65-1.0541-11.596,22.137,1.0542,9.4875-13.177,35.842-12.65-6.325-2.6354,3.6896-17.921-10.015-10.014,21.083,4.7437,24.773-10.542,40.585,36.896,23.719,1.5813,7.9063-20.029,6.3249,0,7.9062,14.231,2.6354,1.0541,7.3792-26.881,42.694-4.2166,15.285,2.1083,20.556,12.123,45.329,42.694,59.56,5.2708,4.2166,4.7437-11.596,15.812-12.123"
       transform="translate(-872.71429,-1107.7092)"
       stroke="#646464"
       stroke-dasharray="none"
       stroke-miterlimit="4"
       stroke-width="6"
       fill="none" />
    <path
       id="path3828"
       d="m1875.2,2097.8-19.328-37.499-10.014-9.4875,8.9603-21.083,11.069-12.123-5.2708-2.1083,4.7438-9.4874,7.9062-0.5271,3.6895-12.65,1.0542-19.502-2.6354-15.285,10.014-4.2166,2.1083-10.014-15.812-6.325,0.5271-10.542-2.6354-18.448,0.5271-15.812-6.325-9.4875,5.7979-7.9062-3.1625-41.639,3.1625-6.325,0.5271-7.9062-2.6354-5.7979-13.177-0.5271-6.8521-7.3791-10.542,3.1625"
       transform="translate(-872.71429,-1107.7092)"
       stroke="#646464"
       stroke-dasharray="none"
       stroke-miterlimit="4"
       stroke-width="6"
       fill="none" />
    <path
       id="path3830"
       d="m1657.1,895.47,7.3791-4.7437,4.7437-13.177,8.9604-2.1083,11.069-8.9604-5.2708-9.4874,2.6354-15.812,6.3249-5.7979-0.527-12.123-16.34,2.6354-3.6896-12.65,21.083-52.181,20.556,2.6354,17.921,3.6896,12.65-1.5812,48.491-6.325,0.5271-12.123-14.758-18.448,24.246-18.975,34.26-5.7979-8.9604-37.423-17.394,5.2708-19.502,0.52708,2.1083-34.26,7.3791-0.52708,16.34,0,21.61-3.6896,34.787-7.3791,42.694,2.6354,4.2166-8.9604-7.3791-8.9604,4.2166-4.7437,7.9062,6.325,3.6896-2.6354-6.8521-11.069,11.069-5.7979"
       transform="translate(-872.71429,-1107.7092)"
       stroke="#646464"
       stroke-dasharray="none"
       stroke-miterlimit="4"
       stroke-width="6"
       fill="none" />
    <path
       id="path3832"
       d="m1883.9,412.66,0,0-12.192,15.82-6.3249,5.2708,0,5.7979-3.6896,5.2708-1.5812,6.852-10.015,15.812,2.6354,11.069"
       transform="translate(-872.71429,-1107.7092)"
       stroke="#646464"
       stroke-dasharray="none"
       stroke-miterlimit="4"
       stroke-width="6"
       fill="none" />
    <path
       id="path3836"
       d="m2001.2,2982.1-25.225-17.314-23.719-5.2708-25.3-10.542-18.448-12.123-12.65-0.5271-4.2166,10.014-15.285,6.8521-20.029,17.921-26.354,5.7979-6.8521,11.596-15.812,5.7978-8.9604,15.812-19.502,3.6895-7.9062,12.65-24.773-11.069-12.123,5.7978-12.65-4.7437,3.1625-6.852-24.246-29.516-13.177,1.5812-8.4333-1.0542-5.7979-5.2708,9.4874-6.3249-29.516-12.65-4.2166-7.9062-34.787-24.246,14.758-30.044,14.758-5.2709,19.502-26.881,23.192-11.596,6.325-8.4333-32.679-80.643-8.4333,2.1083-11.596-8.4333-21.083,0.5271-0.5271,21.083-19.502,4.7437-11.596-0.527-16.34-4.7438,4.2166-20.556-2.6354-10.014-3.1625-2.6354-7.9062,5.2708-11.596-14.231,2.1083-5.7979,6.852-5.7979,1.5813-6.852-5.7979-1.5813-1.5813-10.542-3.6895-4.7437-5.7979-1.5812-3.1625,2.6354,8.4333,10.542-0.5271,7.3791-2.1083,3.1625-7.3791-7.9062-6.325-12.123-0.5271-12.123-7.3791-3.1625-3.6896,1.0541,4.2167,7.3792,0,7.3791-17.394,0.5271-5.7979-11.069,4.2167-0.5271,0.5271-4.2166-4.2167-0.5271-2.6354-6.325-7.3791,4.7437-11.596,0.5271-6.3249,5.2708-6.8521,0-12.65,2.1084-2.6354-5.2709,5.7979-5.2708,1.5812-12.123,7.9062,3.6896,0-8.9604,8.9604-6.8521,7.9062-16.866-3.6896-11.069,5.2708-7.9062,31.625,2.6354,4.7437-4.7438,0-9.4874-5.7979-12.65,2.1083-17.394,23.719,2.1083,7.9062-8.9603,4.7438-29.516-3.1625-4.7438-10.542-0.527-5.2708-6.8521,5.2708-23.192,12.65-10.015,4.7437-4.2166-1.0541-9.4874-5.2708-14.758,11.069-3.1625,10.542,7.9062"
       transform="translate(-872.71429,-1107.7092)"
       stroke="#646464"
       stroke-dasharray="none"
       stroke-miterlimit="4"
       stroke-width="6"
       fill="none" />
    <path
       id="path3838"
       d="m1550.9,3215-10.764-1.3896-17.921-5.7979-6.8521-11.596-11.596,1.5812-7.3792-11.069-49.546-16.34-13.177,0-0.5271,6.8521-1.5813,2.6354-6.852,0-7.9062-4.2167-19.502,5.7979-5.7979-9.4874-6.3249-12.123-16.34-18.448-6.325,2.6354,5.7979,13.704-13.177,4.7437-6.325-25.3,7.3791-9.4874-13.704-40.058,2.1084-22.137-4.7438-14.758-5.2708,3.1625-3.6895-19.502,2.1083-6.325,10.542,8.4333,6.852,13.177,5.7979-3.1625-4.7437-13.177,3.6896-6.325,7.9062-1.0541,3.6895-9.4875-5.2708-5.2708-12.65,2.1083-2.1083-11.596-10.542-12.123,3.1625-5.7979,11.069,11.069,10.015,0,5.7979-7.9062-3.1625-15.285-5.2708-11.596,4.7437-3.6896,11.069,8.4333,6.325,6.8521,6.852-1.0542,4.7437-4.2166-3.1625-7.3792,3.1625-8.9603-6.852-6.8521-9.4875-3.6895,2.1083-12.123,11.069-11.069,0.5271-5.7979"
       transform="translate(-872.71429,-1107.7092)"
       stroke="#646464"
       stroke-dasharray="none"
       stroke-miterlimit="4"
       stroke-width="6"
       fill="none" />
    <path
       id="path3840"
       d="m1587,2780.8-4.2167,11.596,6.8521,11.596-3.1625,6.325-23.192-6.325-31.098-20.029-23.719,24.773-15.812,5.7979-1.0542,6.325-21.61,8.4333-23.719-9.4875-25.3,13.177-23.192-3.1625-12.123,3.1625-3.1624,8.4333,6.3249,69.048"
       transform="translate(-872.71429,-1107.7092)"
       stroke="#646464"
       stroke-dasharray="none"
       stroke-miterlimit="4"
       stroke-width="6"
       fill="none" />
    <path
       id="path3842"
       d="m1476.4,2657,15.285,3.6896,19.502-5.2708,12.65,5.7979,6.325,14.231,16.34,10.014,22.664,1.0541,13.177,11.069,3.6896,10.542,8.9604,6.8521,5.2708,5.7979,6.325-3.1625-2.1084-36.896,4.2167-4.2167-0.5271-21.083-5.7979-3.1625,3.1625-35.314,21.61,1.0542,1.0541,28.462,95.929,2.6354-3.6896-9.4874-6.3249-1.5813-11.069-16.866,13.177-13.704,5.7979,6.852,3.1625-3.6895,8.9603,11.596,9.4875,1.5813,8.4333,10.014,11.596,4.7437,4.7438,15.812,6.3249,8.9604,17.394-4.2166,16.34-15.285-1.5813-35.841,27.408-2.6354,11.596,0,5.7979,5.7978,15.812,2.1084,40.585-4.2167-4.7437,9.4875,23.192,16.34,7.9062-7.9062,12.123,3.1624,15.812,11.596-7.3792,13.177,4.7438,7.9062,3.6895-4.2166,6.325,4.2166,4.7437-21.083,17.394-17.921,6.3249,1.5812,8.4333,5.7979,27.155-15.829m-459.89-141.24,5.2708-16.34-3.6896-15.285-15.812-18.448-5.2708,2.1083,3.6895,7.9062-18.448,15.285,2.1084,6.8521-18.975,3.6895-5.2708-6.852-4.2167-20.029-4.7437-3.1624-11.069,13.704,0,7.3791,8.4333,10.542-12.123,10.542-7.3791-10.542-1.0542-17.394,6.325-6.3249,2.1083-20.029-10.014-0.5271-7.9062-21.083,14.231-16.867-1.5813-27.935,12.65-10.542,3.1624-6.8521-4.7437-3.1625-8.9604,8.9604-6.3249-14.758,2.1083-5.7979-1.0542-8.4333,4.7438-5.2708,6.3249,5.2708,6.325-14.758,7.9062-1.5812,2.6354-8.9604,7.3791-8.9604"
       transform="translate(-872.71429,-1107.7092)"
       stroke="#646464"
       stroke-dasharray="none"
       stroke-miterlimit="4"
       stroke-width="6"
       fill="none" />
    <path
       id="path3844"
       d="m2932.7,475.39-4.7437,16.339,6.852,15.812-3.1625,8.9604,4.2167,9.4874-10.542,11.069-27.935-13.177,2.1083,32.679-6.3249,17.921-16.867,23.192-14.231,33.206-12.65,4.7437-33.733,62.723-47.964-23.192-17.394,59.56-12.65,19.502,1.0542,24.246-33.206-1.0542,0.5271-17.921-28.989-5.7979-44.275,1.0542-13.177-27.935-24.773-26.881-7.9062-29.516-39.531,23.192-12.123-7.9062-14.231,1.0542,3.1624,24.246-11.069-3.1625"
       transform="translate(-872.71429,-1107.7092)"
       stroke="#646464"
       stroke-dasharray="none"
       stroke-miterlimit="4"
       stroke-width="6"
       fill="none" />
    <path
       id="path3846"
       d="m2649.6,1436.8,5.8172-30.033-2.1083-11.069,56.925-144.95-38.477-28.99-4.7438,2.1084-6.852-1.5813-3.1625-7.3791,7.9062-3.6896,6.325,1.5813-0.5271-8.9604-20.029-32.152,7.3792-6.852,6.3249-34.787-6.3249-27.935-1.5813-30.044-43.221-1.5813-0.527-60.614,7.9062-45.329,12.123,1.0542,21.083-17.394,2.6354,11.596,6.325,1.0542,2.1083-7.9062-3.6895-10.015,3.1624-3.6896,6.8521,6.325,17.394,2.1083-1.0541-10.015-12.65,2.1083-1.0541-10.542-15.285,0.52709-10.015-5.7979-17.921-15.812,10.542-26.354-11.069-6.852,6.325-7.9062,6.3249,3.6896,4.7438-2.6354,10.014,6.325,10.014,15.812,10.015,2.6354,5.2708-4.2166,21.61,8.4333,21.61-5.7979,6.852-13.177,10.542-10.542"
       transform="translate(-872.71429,-1107.7092)"
       stroke="#646464"
       stroke-dasharray="none"
       stroke-miterlimit="4"
       stroke-width="6"
       fill="none" />
    <path
       id="path3848"
       d="m2222.2,470.65,135.99,190.28,19.502-3.1625,18.448-14.231,11.069,11.596-9.4875,26.354,0,12.123,15.285,13.704,7.9062-11.069,7.9062,1.5812,8.4333,10.542,22.664,5.7979,6.8521,9.4874"
       transform="translate(-872.71429,-1107.7092)"
       stroke="#646464"
       stroke-dasharray="none"
       stroke-miterlimit="4"
       stroke-width="6"
       fill="none" />
    <path
       id="path3850"
       d="m1405.7,671.04,17.93,27.838-4.7437,4.7437,1.0542,34.787-20.029,20.029-6.325,13.177,2.1084,17.394,11.069-2.6354,9.4874-14.758,16.34,3.1625,4.2166,10.542-13.177,14.231-16.34,4.2166-15.285,12.65-31.098-1.0542-1.0542,10.015,15.812-0.52708,4.7437,11.596-12.123,11.596,14.231,12.123,0.527,7.9062,7.3792,2.1083,3.1624-6.852,23.192,5.7979,7.9062,7.3791,11.596-3.6896,14.758,8.4333,37.423-4.7437,0.5271,6.325-5.7979,3.6896,0.5271,4.7437,7.9062,0,4.7437,12.65,14.758,3.1625,12.65,0,8.9604,6.852,21.083,4.2166,20.556-14.758,8.9604-8.9604,25.3,3.1625,34.26,0.52708,14.231-2.6354,18.448,4.7437,11.596,1.0542-11.596,17.394,1.5812,11.069,17.394,29.516,11.596-1.5812,3.6895,9.4874-4.2166,5.2708-3.6896,0.52708,0,7.3791,5.7979,17.394-2.1083,32.679,2.6354,8.4333,11.596,1.5813,3.1624,5.7978-8.4333,11.596,1.0542,6.8521,11.596,18.975,12.123,1.0541,9.4875-10.542,18.448,0,0.5271,5.2708-3.1625,10.542-7.9062,6.8521-3.6896,18.448-5.7979,3.1625-11.596-4.2167-16.34,5.2708,0.5271,15.812,6.3249,23.719,0,13.704-5.7979,10.014,0.5271,7.9062,13.177,4.2166,1.5813,6.8521-7.9062,11.069-0.5271,7.9062,4.2166,6.3249-4.2166,9.4875,11.069,7.3791,28.989,26.881,25.3,2.1083,14.758,0.5271,10.014,7.9062,9.4875,12.123,2.6354,20.029"
       transform="translate(-872.71429,-1107.7092)"
       stroke="#646464"
       stroke-dasharray="none"
       stroke-miterlimit="4"
       stroke-width="6"
       fill="none" />
    <path
       id="path3852"
       d="m1599.2,1629.7,0,0,0,0,0,0-8.0965-0.5235-11.932,6.3214,4.2166-7.9062-3.6896-11.596-14.231,4.7438-24.773,16.339-11.069,1.0542,4.2166,12.65,9.4875,0,6.325,9.4875-4.7438,14.231-12.123,14.758-10.542,1.5813-12.65-3.6896-8.9603-6.325-12.65-2.6354,0.5271-9.4874-8.4333-3.1625,1.0542-6.325-5.2708-4.2166-17.921,2.6354-6.325-14.231-4.7437-2.1083-2.1084,11.596-6.3249,1.5812-4.7437-5.7979-7.3792,3.1625-4.2166-7.9062-8.4333-3.1625-3.6896,4.7437,1.0542,5.7979-20.029,2.1083-2.1083-5.7978-8.4333-4.7438"
       transform="translate(-872.71429,-1107.7092)"
       stroke="#646464"
       stroke-dasharray="none"
       stroke-miterlimit="4"
       stroke-width="6"
       fill="none" />
    <path
       id="path3854"
       d="m1831.6,2216.6-15.288-1.8142-13.177-4.7437-2.1084,13.704-6.852,2.1083-1.0542-7.3791-8.9603,4.2166,0,8.4333-16.34,4.2167-8.9604,8.9603-6.852,13.704-34.787,9.4875-17.394-4.2167-0.5271-13.704-8.4333-3.1624-7.9062,6.3249-17.921-7.9062-9.4875,3.6896-28.989-1.0542-10.014,3.6896,4.2166,7.3791-17.394,8.4333-17.394-1.5812-15.812,7.3791-15.285,0-9.4875,3.1625-24.773,0.527-18.975-0.527-20.029-2.6354-14.231,6.852-8.9604-2.1083,1.5813-12.123-2.6354-9.4874,3.6895-32.679-6.3249-4.2166-19.502,0-15.812,10.014-10.014,5.2708-12.123-2.1083-13.704,6.852,0,4.2167,8.9604,8.9603,0,4.2167-5.7979,4.2166-11.596-8.9604-5.2708,0-5.2708,4.2167-0.5271,10.542-3.6895,9.4874-5.7979,0.5271-2.1083-12.65,3.1625-15.285-3.1625-1.5813-15.285,25.827-5.2708,2.1083-5.7979-7.9062-3.6895-14.758-6.8521-8.9603"
       transform="translate(-872.71429,-1107.7092)"
       stroke="#646464"
       stroke-dasharray="none"
       stroke-miterlimit="4"
       stroke-width="6"
       fill="none" />
    <path
       id="path3856"
       d="m994.82,2309.1,0,0,6.6315-8.9271,18.975-2.6354-2.6354-6.8521,23.192-11.596,21.61-3.1625,14.231-3.1625,15.812,4.2166,7.9062,5.2708,0,6.325,6.325,0.5271,25.827-16.867,11.069,5.2708,9.4875-18.975,7.9062,7.3791-1.0542,12.65,14.231,2.6354,8.9603,9.4874,8.9604-3.6895,0-5.7979-11.069-12.123-4.2166-15.812-8.9604-13.704,4.7437-10.014,9.4875-6.8521,11.596-0.527,7.3792,5.7978,3.1625,9.4875,5.7978-1.0542-1.0541-13.177,17.394-5.7979,4.2167,4.7438-3.6896,7.9062,0.5271,16.34,5.7979,1.0541-6.8521,35.314,11.596,19.502,7.9062,5.2708,5.7979-5.7979-14.758-26.881,3.1625-18.448,21.083-3.6896,20.556,5.7979,4.7437,11.069,7.3791,1.0542,4.7438-12.123,6.852-0.5271,10.014-14.231,3.6896-11.596,17.921,0,8.9604-10.542-7.3791-6.325-20.029-6.852-4.7437-10.015,2.1083-8.9603,15.285-16.867,0-6.852-13.177-22.664,2.6354-10.014,4.7438-5.2708,12.65,6.3249,16.34-7.9062,9.4874,2.1083,6.325-4.2166-1.5812-13.704,4.2166-1.0542,4.7437-7.9062-7.9062-24.773,6.325-8.4333-1.0542-3.6896-10.014-1.0542-11.596,6.8521,0,7.9062-8.9603-4.2167-9.4875,5.2709-11.069-1.5813-0.5271,9.4875-17.394-4.7438-1.0542-11.069,14.758-22.664,0.5271-7.3791-5.2708,0-4.7438,8.4332-2.1083-0.527-2.6354-6.8521-6.852-10.014,1.0541-6.325,8.9604-4.2166-1.5813-8.9604,5.2709-5.2708,20.556-0.5271,12.123-2.6354-1.5812-11.596,1.5812-1.0542,7.3792,12.65,6.3249,1.0542,2.6354-3.1625-7.9062-10.542-1.5812-8.4333-9.4875-5.7979-11.069-14.231-4.2166-14.758-8.9604-14.231,8.9604-13.177-7.3791-6.3249-1.0542-10.542,8.4333-2.1083,13.704,17.921,15.812-1.5813,28.462-26.354-0.5271-5.7979-7.3792-6.325-0.527-4.7437,7.3791-2.6354,0-7.9062,5.2708-1.5812,7.9062,5.7978,30.044-1.0541,6.852,4.2166,10.015-6.3249-4.2167-15.285,16.867-7.9062,12.123-14.231,5.2708-12.123,5.2708,0.5271,1.5812-4.7437-1.5812-8.4333,5.7978-26.354,6.8521-2.1083-2.6354-6.3249,2.6354-5.7979,7.9062,0,4.7437,6.852,3.6896,14.758,18.448,22.664,8.4333-5.2708-2.1083-11.069,4.2166-4.2166,7.3791,8.4333,26.881-0.5271,11.069,1.5812,22.664,2.6354,5.7979-6.852-0.5271-6.325-17.921-28.462-8.9604-17.921-21.61-6.8521-27.408,3.1625-20.556-6.325-8.9604-14.231,3.6896-6.325,8.4333,3.1625-7.9063-24.773"
       transform="translate(-872.71429,-1107.7092)"
       stroke="#646464"
       stroke-dasharray="none"
       stroke-miterlimit="4"
       stroke-width="6"
       fill="none" />
    <path
       id="path3858"
       d="m1055.9,2874.6,14.08,11.124,8.4333,1.0541,5.2708-3.6895-0.527-13.177,46.383,17.394,21.61-1.5812,5.7979,6.852,5.2708-0.5271,4.2167-10.542,12.123,6.325,0.5271,11.069,19.502,10.014,14.758,6.325,6.8521-4.7438-3.6896-6.852-0.5271-19.502,4.2167-4.2166,10.014,6.852,10.542-8.4333-1.5812-7.9062,4.2166-4.7437,8.4333,6.325,31.098-7.3792,46.383,0,7.9062,4.7438,1.5813,6.852-5.7979,7.9062-8.4333,1.5813-5.2708,7.9062-9.4874,5.7979,2.6354,15.285,6.852,1.5812,4.2166-8.4333,5.2708,4.2167,4.7438,17.394,5.2708,6.325,8.4333-3.6896-1.5813-12.65,3.6896-7.3791,0-10.014,7.3791,3.1624,0.5271,11.596,0,9.4875,4.2166-1.0542,10.015-11.069,16.866,2.1083"
       transform="translate(-872.71429,-1107.7092)"
       stroke="#646464"
       stroke-dasharray="none"
       stroke-miterlimit="4"
       stroke-width="6"
       fill="none" />
    <path
       id="path3860"
       d="m829.64,2190.9,2.6172-10.887-5.7979-12.123,5.2708-11.069-8.9604,0,1.5812-12.123,8.4333-7.9062,4.7437,9.4875,10.015-7.3792,12.65-5.7978,8.9604,1.5812-2.1083-13.177,1.5812-18.975-9.4874-2.6354-17.394-25.827-12.65,1.5813-2.6354-8.9604-8.4333-1.0541-8.4333-12.65,14.758-7.9062,2.6354-11.069,10.542-2.1083,3.6896-4.7437-7.9062-11.069,4.2166-8.4333-8.9604-15.285-12.65-3.1625-3.6896-13.704,11.069-6.852,1.0542-8.9604,7.9062-3.6896,10.015,3.1625,9.4874-10.542,30.571-17.394,3.6896-6.852,10.015,4.7437,18.975-17.394,0-12.65-11.069-10.542,0-15.812,17.394-11.069,8.9604-9.4874-8.9604-0.5271,2.1083-9.4875,30.044-10.542,21.083-26.881,0-13.177-6.325-8.4333,5.2708-5.2708,1.0542-22.664,26.881-1.0542,3.6895-14.231,11.069-6.3249,6.8521-13.704,1.0541-11.596-4.2166-11.596,4.7437-8.4332-2.6354-17.921-5.2708-14.758,4.2167-12.123-4.2167-8.4333-6.852,3.1625-15.285,0.5271"
       transform="translate(-872.71429,-1107.7092)"
       stroke="#646464"
       stroke-dasharray="none"
       stroke-miterlimit="4"
       stroke-width="6"
       fill="none" />
    <path
       id="path3862"
       d="m2094.6,780.04,13.177-24.773,102.78,3.6896,15.285-25.827,22.137,7.3791,42.166,38.477,14.231,22.137"
       transform="translate(-872.71429,-1107.7092)"
       stroke="#646464"
       stroke-dasharray="none"
       stroke-miterlimit="4"
       stroke-width="6"
       fill="none" />
    <path
       id="path3864"
       d="m2862,630.88,35.842,13.704,2.1083,21.083,3.6896,5.2708,3.1625,7.3791,4.7437-1.0542,1.5812-11.069,8.4333,2.1083,0,17.921-15.812,1.0542-6.325,67.466-17.394-3.6896-3.6896,13.704-6.852-2.6354-0.5271-7.3791-6.325-7.3791-4.2166,9.4874-5.7979,7.3791-10.014-2.6354-5.7979,8.9604,8.9603,10.015-5.2708,13.177-7.9062,3.6896-2.6354,6.852,0,6.852-16.866,22.664-5.7979-6.852"
       transform="translate(-872.71429,-1107.7092)"
       stroke="#646464"
       stroke-dasharray="none"
       stroke-miterlimit="4"
       stroke-width="6"
       fill="none" />
    <path
       id="path3866"
       d="m3281.2,502.29,0,0-1.2283,11.583,6.8521,6.852,6.852,18.975,2.6354,11.596,4.7437,6.852-3.1624,13.177-6.325,12.65-2.1083,10.015,5.2708,5.2708-4.2167,10.542-3.1625,2.6354,4.7438,12.123,0,6.852-5.2708,6.325,10.014,3.1625,9.4874,1.5812-4.7437,12.123,8.9604,4.2166,9.4874,5.2708,0.5271,8.9604-13.177,3.1625-7.9062,8.9604-3.6896,10.015,13.704,11.596-8.4333,7.3791,10.015,6.325-2.6354,10.015,10.014,6.325-16.867,10.542,0,11.069-9.4874-0.52708,0.5271,8.4333-5.2709,5.2708,2.6354,7.3791-10.542,7.3791-11.596-2.1083,5.2708,10.015-8.4333,4.7437-11.596,6.325-9.4874-3.1625-7.3792,6.325,1.0542,8.4333,8.9604,6.852,0,7.3791-20.029,4.7437-11.069-5.2708-9.4874,10.015-8.4333,14.231-5.7979,21.083-11.596-2.1083"
       transform="translate(-872.71429,-1107.7092)"
       stroke="#646464"
       stroke-dasharray="none"
       stroke-miterlimit="4"
       stroke-width="6"
       fill="none" />
    <path
       id="path3868"
       d="m3338.4,1208.7,6.4597-21.764-44.802-10.542,3.1625-14.758-52.708-20.029,15.285-28.462-11.596-7.3792,25.827-56.925-7.3791-3.1624-7.9062,1.0541-11.596-3.1625-12.123-1.0541-14.231-11.596-2.6354-13.704-3.6896-6.852-8.4333-8.4333,0.5271-5.2708-7.9062-5.2708,0-5.2708-7.3791-2.1083-11.069,3.6896-20.556-4.7437-13.704-8.4333-2.6354-16.339-15.285-6.325,1.0542-14.758,8.4333-14.231,8.9603-13.177,7.3792-1.0542,9.4874,10.015,13.177-5.2708-7.3791-12.65,9.4875-10.015-4.7438-16.867m-370.54-46.91-8.4333-7.9062-14.231-6.852-11.069-7.3791-14.758-7.9062,10.014-8.4333,16.34,8.4333,14.758,12.123,9.4875-4.2166,7.3791,3.6896-3.6895-13.704-20.556-12.123-4.7437-10.542-6.8521,0-11.069,5.2708-13.177,0-7.9062,5.7979-10.542-0.39532-13.704,20.424,4.7438,15.812,12.123-1.5812,8.9604,11.596-19.502,8.4333-1.0542,13.177,11.596,16.867"
       transform="translate(-872.71429,-1107.7092)"
       stroke="#646464"
       stroke-dasharray="none"
       stroke-miterlimit="4"
       stroke-width="6"
       fill="none" />
    <path
       id="path3870"
       d="m2466.7,723.65,8.9603-7.9062,8.9604-0.52708-4.8834-6.986,3.3543-5.7769-5.2178-2.4226-8.3858,10.063-3.727-1.6772,2.6089-9.8766,9.6902-6.3359,6.5223,0.93176-1.6771-8.3858,13.79-16.026,8.5722,5.2178-1.4908,6.3359,4.6588,0-1.3045,8.5722,2.4226,6.7086-11.926,10.249-3.168,8.1994,6.5223,3.9134,1.4908-11.554,7.2677-5.2178,3.3432,6.6882"
       transform="translate(-872.71429,-1107.7092)"
       stroke="#646464"
       stroke-dasharray="none"
       stroke-miterlimit="4"
       stroke-width="6"
       fill="none" />
    <path
       id="path3872"
       d="m1826.9,1293.4,14.758-12.123,18.448-10.542,12.123-18.975,10.542-8.4333,6.8521-13.704,11.069-7.3791,2.1084-13.177,9.4874-7.9062-4.7437,16.867,15.285,5.7979-7.9062,19.502,20.029,10.015-8.9604,12.65-9.4874,6.325,11.596,8.9603,12.123-4.7437,1.0541-8.9604,10.015-2.1083,16.34,2.1083,3.1625-19.502,6.3249,0.527,12.123,14.231-3.6896,7.9062,3.1625,10.015-4.2167,6.3249,5.7979,9.4875,26.354,1.0541,6.3249,10.542-1.0541,12.123,12.123,0,10.014-4.7437,0.5271-14.758-6.325-8.9604-12.65-9.4874-4.2166-16.867-10.542-10.542,7.3791-5.7979,12.65,9.4875,11.596-13.704,10.542-33.733,10.014-3.1625,6.325,6.325-2.1083,8.4333,12.123,7.3791,14.758,1.0542,8.9603,8.4333,16.34-8.9604,0-7.3791-2.6354-3.6896-15.812-1.0541m-248.25-740.02-3.6895,7.1156,4.7437,7.1156-5.7979,10.015,15.285,5.7979,11.069-0.52709,6.325,18.448,11.069,18.975-0.5271,8.9604,7.3791,5.2708,1.5813,11.069,5.2708,3.6896,11.596-0.52708,10.542,6.852,5.7978,12.65"
       transform="translate(-872.71429,-1107.7092)"
       stroke="#646464"
       stroke-dasharray="none"
       stroke-miterlimit="4"
       stroke-width="6"
       fill="none" />
    <path
       id="path3874"
       d="m724.46,941.04,29.261-18.68,3.1625,4.2166,17.921-5.7979,18.448,6.325,4.2166-3.6896-6.325-10.542,4.2166-2.6354,16.867,8.4333,4.2166,17.394,5.2708,0,1.0542-10.015,2.6354-3.6896-3.1625-17.921-7.9062-6.852-7.3791-7.9062-11.069-1.5812-0.52708-6.325,7.9062-5.7979,4.7437-5.7979,7.9062-0.52708,10.015,2.1083,4.2166,10.015,8.4333-2.6354,27.408-43.748,26.354,16.34,21.083,5.7979,19.502-3.1625,19.502-6.852,20.029-14.231,15.812,2.6354,5.7979,14.758,1.0542,22.137,9.4875,2.6354,10.542-2.1083-2.6354-9.4874,11.069-3.1625,18.448,5.7979,33.206-17.921,4.2167-14.758,6.852,0.52708,9.4875-2.6354,34.787,57.979,8.9604-6.852,8.4332,4.7437,2.6355-8.9604,11.596-5.7979,2.1083,5.2708,10.542,1.0542,1.0541-7.9062,10.014,2.1083,46.91-30.044"
       transform="translate(-872.71429,-1107.7092)"
       stroke="#646464"
       stroke-dasharray="none"
       stroke-miterlimit="4"
       stroke-width="6"
       fill="none" />
    <path
       id="path3876"
       d="m1380.4,1642.9,12.65-21.61,16.866-6.852-6.852-8.4333,4.7437-6.852-2.6354-11.069-8.9604-2.6354,1.5813-12.123-6.8521-5.2708-11.069-20.029-3.1625-12.65-4.7438-4.2166,3.6896-13.177-3.1625-4.2167-14.231,10.014-2.1084-10.542-5.2708-1.0541-2.6354-11.069,8.4333-8.9604-4.2166-6.3249-3.1625-9.4875,12.123-1.5812-6.852-14.231-13.704-12.123,7.3791-3.6895-3.6895-4.7437,4.7437-2.1084-7.3791-13.177,4.7437-7.3791,10.542-1.5812,5.2708,2.1083,5.7979,6.852,4.2166-2.6354-2.1083-10.014-17.394-19.502-7.3791,2.6354,6.325,6.325-10.542,4.7437-11.596-7.3791,3.1625-13.177-6.325-7.3792,6.325-8.4332-6.325-7.3792,2.1083-7.9062-17.394-22.137-8.4333-23.719-8.4333-4.7437-4.7437,1.5812-1.5812,10.015,9.4874,17.921-19.502,8.9604-1.5812-31.098-7.9062-16.34m-7.7898-550.57-17.51,9.2616,2.1083,11.069-6.3249,3.1625-9.4875-17.394-6.852,0-4.2167,7.3791,10.542,9.4874,0.5271,6.325-5.2708,11.069,2.1083,11.596-8.4333,3.6896-2.6354,6.852,13.177,12.123,9.4874-2.6354,1.0542,5.7979-6.325,5.2708,0,15.812-2.6354,18.975,2.6354,8.9604-2.1083,8.4333,2.6354,4.2166,6.3249-3.6896,8.4333-7.9062-4.7437-7.3791,6.8521-3.6896,3.1624-13.704,8.4333-6.325,12.65-3.1625,2.1083,6.325-15.285,6.325-1.5812,4.7437,16.867-2.6354,2.1083,3.6896-10.014,6.325-12.65,9.4874-5.7978,12.65-0.5271,9.4874,3.1625,9.4874-3.6896,5.2708-5.7979-2.1083-5.2708,5.2708,13.177,10.542,35.314-5.2708,3.6896-8.9604-2.1083-8.4333,6.3249-3.6896,6.325-6.852,6.3249,1.5812-1.0541,8.4333-5.7979,6.325,0,14.231,4.7437,3.1625,8.9604-1.5812,1.5812,4.2166-16.34,6.852,0.5271,9.4874-11.069-2.6354-22.664,13.704,0.5271,7.9062-13.177,3.6896-2.6354-8.4333-7.3791,1.5812,1.5813,16.339-17.394,6.325,3.6896,6.325,17.394,1.0542,15.812-7.9062,14.758-8.9604,10.014,10.542,10.014-13.177,6.8521,1.5812,1.0541,12.123-5.2708,13.177,6.8521,6.8521,5.2708,17.921,21.083,3.1625,6.8521-5.7979,1.0541-7.9062,5.7979-1.5812,2.1083-6.325,6.8521,0,0.5271,8.4333,3.1624,7.9062-12.65,3.6895-7.3791,9.4875,8.4333,9.4874,22.664,17.394,7.3792,25.827-2.6355,15.285-6.3249,5.7979-20.556,4.2166-13.177-0.5271-35.314-31.625-32.152,31.098-2.1083,16.34-8.9604-2.1083,1.5813-15.285-23.192-2.6354-1.0541,11.069-12.123,5.2708,0,7.9062-10.542,3.6895-0.5271,15.812,8.4333,15.285-3.6895,8.4333-5.7979,1.0541-1.5813-6.852-13.704-5.2708-17.394-1.0542-13.704-14.758,1.5812-10.015-2.6354-2.1083-6.852,4.2167-9.4875-6.8521-12.65,13.704,2.1083,15.812-7.3791,7.3792-7.9062,1.5812-10.542-6.8521-7.3791,4.7438-7.3792,2.6354-18.448,26.354-5.7979,11.069-11.069,2.1083-7.3792,15.812-12.65,3.1625-9.4875,8.4333,0.5271,8.9604-13.177,11.069-5.7979-12.123-13.177,10.542-23.192,11.069-9.4874,8.9604-11.069,1.5812-4.7437,6.325-6.852,1.0541,0-32.679-10.542-7.9062,13.177-8.4332-5.7979-11.069-13.177,8.4333-11.069-8.4333-6.852,0-7.3791-4.7438-23.192,5.7979-15.285-3.6895-1.0542-10.542-22.664-40.585-7.3791,8.9603,17.394,52.181-9.4874,24.773,7.9062,1.0541,3.1625,4.7438-1.5812,9.4874-9.4874,9.4875-13.704,5.7978,2.6354,10.542,14.758-4.7437,14.231,6.325-12.123,10.542-17.921,1.5812-12.123,5.7979-0.52708,5.7979,12.123,5.7979-3.6896,9.4874-10.542,6.8521-6.325,9.4874,4.2166,6.8521,5.7979-3.6896-6.325,16.34,14.758-10.542,3.6896,4.7437-7.3791,10.542-0.52708,6.325-13.177,2.6354-3.6896,4.7437-10.542-2.1083-2.6354,5.7979,9.4874,5.2708-0.52708,5.7979,6.852,1.0541,6.325-3.1624,7.3791,1.0541,4.2166,8.4333-1.5812,10.542-65.358,5.2708-7.3791-12.65-58.506,2.6354-16.34,7.9062-5.2708-8.9604,5.2708-4.2166,3.6896-8.4333-7.9062-14.758-7.3791-15.285,0.52709-8.4333-5.2708-14.758-8.9604-5.2708-2.1083-8.4333-6.852-1.0542-4.2166-6.3249-2.1083-15.285-26.881-15.812-13.704,2.1083-0.52708-10.542-17.921-6.3249-6.852-5.7979-2.6354-10.015-8.4333-8.4332-8.4333,1.0541,3.6896-11.069,4.2166-2.6354,0.52708-5.2708,6.325-1.5812-2.6354-7.3791,7.3791-2.1084,10.015,3.6896,0,7.9062,13.704,0.5271,6.852-6.325-1.5812-5.7979-10.015-2.6354-5.7979-3.6895,4.2166-5.2708-7.3791-5.2708-7.9062-12.65,3.6896-3.1625-3.1625-5.7978,6.325-4.2167-11.069-3.1625,3.6896-18.448,5.7979-11.069-5.7979-11.596,6.325-4.2167,3.6896-22.664,10.542,1.0541,7.3791-3.6896,5.2708,7.9063,6.325-10.542,14.488-15.15"
       transform="translate(-872.71429,-1107.7092)"
       stroke="#646464"
       stroke-dasharray="none"
       stroke-miterlimit="4"
       stroke-width="6"
       fill="none" />
    <path
       id="path3878"
       d="m759.52,1429.9,0.52708,17.394,14.758,41.639,16.867-12.65,6.325,11.069-2.6354,8.4333,13.704,9.4874,33.733-2.6354,0.52708,18.448,1.5812,18.448,13.704,5.7978,8.9604,10.542-0.52708,10.014,9.4874,10.014,2.1083,12.123-5.2708,17.394,6.852,6.325,23.192-7.3791,10.015,0.527-12.123,8.4333,24.246,7.9062,17.921-5.7979,16.867,10.542-4.7437,5.2708-28.989-0.5271-15.812-5.7979,4.7437,14.758,13.704,3.1625,65.358-4.2166,5.2708-13.704,11.596-27.408,7.9062-4.7437,14.758,6.852,12.123-2.6354,0-9.4874,4.7437-7.9062,11.069,0,22.664-15.285,9.4874,8.9604,71.683-1.0542-1.5813,12.123,5.2708,7.3791-6.852,11.596-0.5271,8.9604,4.2167,3.1624,20.556-26.354-3.1625-6.852,9.4875-14.758,4.7437,0,4.2166,10.015,10.015,0.527,11.596-7.3791,14.758-0.5271,3.1625,20.029-6.8521,8.9604,2.1083,11.069,8.4333,4.2167,5.2708,16.867,6.325,1.5812,4.2166-4.7437,8.4333,0.5271,3.1625,3.1624,13.177-3.1624-3.1625-8.9604,7.9063-10.014,23.719-13.177,3.6895-14.758,16.34,32.679,2.1084,18.448,2.6354,13.177,7.9062,5.2708,8.4333-3.1625,2.6354-6.852,8.4332,4.7437,13.704-3.1625m-111.74-347.87-1.0542-13.177,8.4333-25.3-15.285-7.9063-12.123,0-5.7979-6.3249-2.6354-12.65-32.152,0-12.123,3.1625-5.2708-3.1625,4.7437-8.4332,18.975-2.6354,2.1083-4.2167-18.448-1.5812-7.3791-8.9604,18.448,0,25.3,1.0542,5.7979,4.2166,16.867-5.7979-4.2166-7.9062,5.7978-4.7437,10.015,0.5271-3.1625-11.069,1.0542-24.773-2.6355-9.4874,4.4802-10.542-0.7906-10.542"
       transform="translate(-872.71429,-1107.7092)"
       stroke="#646464"
       stroke-dasharray="none"
       stroke-miterlimit="4"
       stroke-width="6"
       fill="none" />
    <path
       id="path3880"
       d="m2034,1320.3-1.0542,12.65-15.812,1.5813,0.5271,22.137,2.1083,21.083,55.871-1.5813,1.0541,15.285,11.596-0.5271-5.2708,22.664,10.542,3.1625,6.852,19.502,7.9063-5.7979-3.6896-12.123,30.571-1.5813,4.2166,10.014,7.9062-14.231,4.2166,0.527,10.015,26.881,13.177,12.65,5.7979,36.896-0.5271,21.083,1.5812,10.015-5.2708-1.5813-1.5812,9.4875,3.1625,10.014,4.2166,3.6896,0.5271,6.852-6.325,0.5271-9.4874,3.1625-1.5813,5.2708,8.4333,4.7437,8.9604,12.123,12.123-8.9604,5.7979,8.4333-6.852,8.9603,5.2708,5.2708,8.4333-2.1083,2.6354,8.4333-5.7979,8.9604,28.607,11.629"
       transform="translate(-872.71429,-1107.7092)"
       stroke="#646464"
       stroke-dasharray="none"
       stroke-miterlimit="4"
       stroke-width="6"
       fill="none" />
    <path
       id="path3882"
       d="m843.33,1521.1,0,0-10.339,0.1578,1.3045,14.535-41.37,1.3044,3.168,76.59,10.436,19.008-6.3359,5.7769-3.5407,11.181,4.4724,35.034-9.6902,8.7585-23.667,17.89-1.8635-11.367-2.6089-7.2677-1.3044-24.785-12.858,1.1181-3.3543-4.8451-2.2362,8.9448-6.7086,0.7454,3.727,11.181-4.8451,17.89,7.8268,16.772,8.9448,9.3175-3.727,7.4541,5.5905,6.7086-20.126,2.9816-12.299,10.063,0.3727,11.181-16.772,4.0997-8.1994-6.7087-18.635,9.3176,6.7086,7.454,10.808,2.9817-2.6089,11.554,3.727,14.535,10.436,1.4908,7.8268,5.5906,7.454,14.535,1.8635,6.336,21.989,16.399-7.454,9.6902-0.3727,10.063-28.698-1.8635-2.6089,6.7086,34.661,9.6903,11.554,27.953-5.5905,10.436-9.3176-6.3359-3.3543,4.8451-6.3359,0.7454,0,19.753-17.89,4.4724,4.0997,15.281-10.808,1.4908-8.9448,6.7087-6.7086-2.6089-13.417,21.244-6.3359,13.045-7.8268-2.9817,0-7.0813-9.6903-3.3543-21.142-18.503"
       transform="translate(-872.71429,-1107.7092)"
       stroke="#646464"
       stroke-dasharray="none"
       stroke-miterlimit="4"
       stroke-width="6"
       fill="none" />
    <path
       id="path3884"
       d="m2094.6,780.04-8.6586-6.0772-54.727,4.5606-10.895-7.8543-0.2533,14.188-16.722-1.2668,1.2669,10.135-5.5741,3.8005,4.5606,6.0808-3.8005,4.8139-15.962-1.0135-7.0943-10.641-14.188-20.776-14.949,6.0808-10.641-4.814-6.5875,4.0538,2.2803,4.814-19.002,9.1212-20.016,19.002-20.776-1.0135,5.5741,14.695-14.188,5.0673,12.668,13.175,21.789-11.655,14.695,19.763-25.843,8.6144,2.027,28.377-12.668,8.1077-16.215,2.5336,2.0269,6.5875-3.5471,3.0404-0.5068,9.1212-17.736,3.0404-15.202-11.148-14.695-7.601-13.682,6.0808,14.695,12.162-2.5337,9.6279-17.229,2.0269,10.641,13.682,25.843,6.5875-17.229,21.789-8.1077,4.5606,5.5741,6.5875,1.0134,10.641-3.5471,10.641,7.0943,4.0539,18.749-12.668,14.188,4.0538,5.0673,6.0808,15.709-3.5471,5.574,6.0808-5.0673,9.1211,14.188-4.5605,1.0134,7.0942,11.655,9.1212-2.5337,16.722-2.0269,8.1077,4.5606,13.175,11.148-7.0942,11.655,8.1077,3.0404,9.6279-13.175,2.0269,0.5068,22.296-22.296,12.162,9.6279,5.0673,15.202,1.0135,31.417,12.668,5.574-8.1077,0.5067-24.323,5.5741-8.1077,9.1212,1.0134-1.0135,11.655,6.5875,6.0808,0,11.148,18.242,8.6144,17.229,3.0404,7.601-5.574-2.5337-11.148,3.0404-15.202-6.5875-3.5472-9.1212-0.5067-1.5202-22.296,16.215,0,2.5337-13.175,16.215-10.641,11.655-7.601,4.0538,4.5606,16.722-6.5875,45.905-52.783"
       transform="translate(-872.71429,-1107.7092)"
       stroke="#646464"
       stroke-dasharray="none"
       stroke-miterlimit="4"
       stroke-width="6"
       fill="none" />
    <path
       id="path3886"
       d="m2107.8,994.57-7.3937-28.294,89.691-51.687-2.5336-43.579,79.557-12.162,1.5201-11.148,27.942-6.5749-7.5288-30.898,15.346-9.096"
       transform="translate(-872.71429,-1107.7092)"
       stroke="#646464"
       stroke-dasharray="none"
       stroke-miterlimit="4"
       stroke-width="6"
       fill="none" />
    <path
       id="path3888"
       d="m2341.8-31.781-64.906,3.375,10.813,50.031,6.75,14.219,28.406,39.875,6.0938,25-10.813,13.531-37.875,51.375-6.75,43.938-2.0312,52.75,1.3438,25,8.7812,11.5,3.4062,14.188,4.0313,29.062,10.812,22.312,4.0625,29.75-8.0937,5.4062-14.219-6.75-22.312,2.0312-5.4063-8.7812-13.5,1.3438-8.7812-5.4062-52.062,12.156-14.219-3.375-42.563,0.6875-23.687,3.375-26.344,12.156-45.656,32.125-28.125,59.969,2.5312,59.781-3.0625,20.781,4.5625,18.75-2.5312,80.562-4.0626,20.281-0.25,37.312-1.25,7.2812,20.781,57.25,19,39.281,3.2813,23.062-26.094,27.344-17.469,33.188-1.5312,28.906,6.8438,36.719,5.3124,22.812,8.125,17.219,20.5,30.156,8.625,9.625,8.375,12.938,13.156,13.156,15.219,7.0937,22.781,1.0313,12.688,5.0624,7.8438,4.5626,13.687,4.8124,15.438,0.75,20.031-4.5624,15.438-7.5938,14.719,0.25,14.188,13.938,15.969,26.344,16.719,27.375,24.063,27.875,4.3124,10.875,22.531,17,41.312,18.719,12.906,8.375,30.656,27.125-1,9.875-2.7813,3.7812,1.25,2.0313,3.8126-1.25,5.8124-7.3437,15.969,7.8437,19.25,10.125,9.625,12.688,1.2812,11.906,5.8126,15.688,16.219,22.812,42.562,52.969,11.656,17.469,2.2813,10.906-3.7813,16.219-4.8124,13.656-5.5938,5.3438-5.5625-2.8126-13.188-9.0937-12.156-14.969,1.5312,17.75,3.7812,8.3437,0.2813,3.0625,10.875,11.375-1.7813,18.75-12.656,18.75-15.438,12.688-24.094,3.2813-12.156,0,10.406,5.5624,7.5937-1.75,14.188,2.2813-1.2812,14.938-3.0313,15.719,5.5,40.844,7.1563-6.0625,7.9687,10.344,1,20.75-8.5937,22.812,3.0312,25.344,13.188,22.812,7.0937,23.812,9.0938,27.344,15.219,19.781,1.5312,9.125,31.406,32.938,12.156,8.5937,10.125,12.156,13.688,4.0625,13.188,8.625,41.531,28.875,7.625,47.625-8.125,13.188,13.187,12.656,8.5938,24.344,29.406,16.219,8.0938,25.844,11.156-15.219,43.063-15.187,46.625-7.625,1.5312,36-15.719,13.156,11.156,10.156,5.5625,12.656,10.656-2.5313,18.75,26.344-12.156,17.219-11.656,22.312-11.656,4.5626-41.062,5.5624-22.781-2.5312-12.688,5.0625-12.656-5.5625-23.812,9.625-9.625,13.688-31.938,3.5313-21.281,1.5312-71.438,17.219-31.937-4.0313-13.688-17.25-15.187-28.375-25.844-14.688-41.562,3.5625-18.25,5.5625,18.25,16.219,22.312-6.0938,30.906,4.0625,35.469,49.656,23.312,12.656,31.406,0.5312,24.312-6.5937,9.125-11.156,23.313-4.5624,18.75,3.5624,24.844-6.0937,11.656-11.656,35.469-12.656,26.844,6.5938,18.25,2,22.813,11.156,36.469-10.125,35.469-45.625-1-19.75-7.5937-12.156-2.0313-10.656-16.219-19.75,14.688-34.469-0.5-32.469,8.0938-0.9688,51.687-32.437,51.688-17.219,51.187-17.219,68.406-13.187,86.656-17.719,100.84-16.75,46.094-9.625,36.5,1.5312,31.906,8.625,50.188,2,26.844,11.156,43.594,10.156,29.375,28.875,10.656,32.437,13.156,28.875,28.906,28.875,18.219-0.5-8.5938-50.687-20.281-34.438-35.469-33.969-37.5-23.812-18.75-3.0312-29.906,4.0624-22.281-11.656-42.563-3.0625-29.406-18.75-29.375-2-20.281,14.188-61.813,8.5938-53.219-10.125-54.719,20.781-50.156,5.5625-57.781-8.625-67.375,6.0937-28.906,14.188-27.875-9.125-33.438,6.5937-17.219-21.781-48.656-18.75-15.688-1.5312-39.031,15.719-41.063,0-38.5-6.5938-34.469-21.781-18.219-30.406,9.125-24.344,2-45.594,3.0624-39,8.0938-17.25,0-24.812,8.125-7.0937,6.5625-41.563-3.5313-50.687-3.5624-16.188,1.0312-42.062-12.688-25.344,2.0313-28.875,1.5312-17.75,11.656,7.0938,15.719-2.5313,11.656-12.656,8.5938-6.5937-9.625-14.688,12.688-7.0938,3.5313,25.844,11.656,18.219,14.688-8.0938,11.656,5.0625,34.25-14.938-23.594-27.5-6.5938-1.9688,0-7.6874-7.8437-0.1876-10.188-6.7812-8.1562-18.75,1.25-14.688-5.0626-12.156,6.5938-11.906,5.5625-14.719,10.656-10.125,2.5312-7.3437-3.8125-3.5313-10.375,1.75-6.0937-10.125,12.937-8.625,2.7813-7.8437,9.875,5.0625,1.5313,8.375,9.875-7.875-1.5313-6.8438-10.625-5.3124-1.5313-5.3126,14.188-10.125,14.687,4.8126,0.25,7.8437,3.5626,0.75,0.75,12.938,10.656,14.688-1.5312-10.375,8.375,1-3.0626-8.875,5.8438-4.3125-7.5938-1.5-4.8124-8.125-4.0626-2.5312,0-12.656,5.5626-6.5937,4.0624,1.7812,5.3126-0.25,1.0312-12.438,3.5312-1.75,9.125,1.75,8.125-7.0937,0-6.0626,4.5313-7.3437,14.969,0.5,21.281-28.125-0.75-23.812,21.281-1.5312,9.875-13.688-0.25-23.281,2.7812-15.469,12.656-6.5937-9.625-13.438-2.7812-13.156,5.8125-26.875,31.438-16.969,9.125-6.5938,7.8438,1.2813,21.531-12.406-1-14.188-8.125,1.25,2.5312-9.375-6.8437,0.5,6.3437-9.375,3.3126-28.875-14.719,16.969-19,12.188-17.469,15.688-10.406-6.3125-16.969,2.5312-16.719,0.25-15.438,4.3125,1.5,20.75-6.3438,6.3437-7.0937,2.2813,3.0625,21.281-5.5938,6.8438-12.906-1.7813-8.875-3.2813-3.8125,10.625-15.438,15.719-11.406,11.406-19.75-0.5-8.875,6.3126,4.3124,18.5-20.031,18.75-23.062,18.25-14.938,20.781-23.562,13.938-17.531,18.469-10.594,15.719-36.75,45.375-5.3125,8.8438-4.3125,22.312-7.5937,11.656-18.75,10.875-1.7813,12.938-7.5937,9.875-16.719-14.938,0-9.125-7.5938-6.0937-20.031-4.5626-23.812-1.75-12.656-4.5624-7.3437-7.625-7.0937-13.938-30.906-32.406-20.031-25.094-6.5937-14.687-1.25-15.969,4.5625-14.438,8.0938-11.906,1.7812-15.219-3.8125-15.438-6.0625-12.438-16.719-12.406-25.344-10.875-25.844-5.8437-6.3438-3.2813-20.781,0.75,0.5-10.906-15.688,5.5938-25.844-3.5626-22.312,6.8438-8.0938-2.7812-2.2812-13.938-19-15.969-33.688-32.438-7.375-17.219-15.188-9.125-16.219-27.875,1-22.031-14.687-20.781l-9.2-13.57-18.9-12.12-11.6-21.79-4.1-7.09-8.375-3.7812-3.5312-20.281,9.0938-31.688,26.125-8.5938,3.5312-9.875,16.219-11.906,4.0624-11.656,44.281-37.812,4.3437-7.3125,10.938-18.531,18.219-34.906,14.938-1.2812,16.719,3.8125,11.656-2.7812,19.25-10.656,14.438-16.219,3.5625-9.875h6.0938l5.0624,7.3438,8.0938-4.5625,2.2812,4.0625-3.0312,6.5938,10.125,0.25,8.375,2.5312,9.125-8.125,23.031-8.5938,2.0313-24.062-10.625-3.5625-11.406,4.0625-6.8437,11.125-1.0937,6.9688-6.2813,0.375,0.1875-9.8438,4.3125-8,9.75-10.375,9.6875-19,10.75-6.0938,10.031-8.9375,7.1563-22.594,11.469-10.031,2.875-25.062-2.5312-16.844-12.156-15.781-10.75-18.281,13.25-28.656,12.906,2.875,32.406,7.3438,28.188,1.125,32.125-22.656-7.9376-13.469-26.594,7.2812-17.438,6.3125-15.688,3.3125-28.3-14.65,0.7188-31.188,8.9687-18.969,16.844-18.656,6.0938-18.625,2.875-23.281,23.625-17.906,6.4688-11.844-1.4376-21.125-8.5937-19.375-0.9687-29.656-24.25-28.594-20.969-32.438-30.406-36.5-15.563-47.344-11.5-38.531,6.7813-29.75z"
       transform="translate(-832.58319,-1066.1449)"
       stroke="#0978ab"
       stroke-miterlimit="4"
       stroke-dasharray="none"
       stroke-width="4"
       fill="#c6ecff" />
    <path
       id="path3085"
       
  </g>
</svg>
